<svg width="38" height="38" viewBox="0 0 38 38" fill="none" xmlns="http://www.w3.org/2000/svg">
<path d="M31.6667 9.50002C33.4155 9.50002 34.8333 8.08222 34.8333 6.33335C34.8333 4.58445 33.4155 3.16669 31.6667 3.16669C29.9178 3.16669 28.5 4.58445 28.5 6.33335C28.5 8.08222 29.9178 9.50002 31.6667 9.50002Z" stroke="#263238" stroke-width="2" stroke-linejoin="round"/>
<path d="M31.6667 34.8333C33.4155 34.8333 34.8333 33.4155 34.8333 31.6667C34.8333 29.9178 33.4155 28.5 31.6667 28.5C29.9178 28.5 28.5 29.9178 28.5 31.6667C28.5 33.4155 29.9178 34.8333 31.6667 34.8333Z" stroke="#263238" stroke-width="2" stroke-linejoin="round"/>
<path d="M6.33332 9.50002C8.08219 9.50002 9.49999 8.08222 9.49999 6.33335C9.49999 4.58445 8.08219 3.16669 6.33332 3.16669C4.58442 3.16669 3.16666 4.58445 3.16666 6.33335C3.16666 8.08222 4.58442 9.50002 6.33332 9.50002Z" stroke="#263238" stroke-width="2" stroke-linejoin="round"/>
<path d="M6.33332 34.8333C8.08219 34.8333 9.49999 33.4155 9.49999 31.6667C9.49999 29.9178 8.08219 28.5 6.33332 28.5C4.58442 28.5 3.16666 29.9178 3.16666 31.6667C3.16666 33.4155 4.58442 34.8333 6.33332 34.8333Z" stroke="#263238" stroke-width="2" stroke-linejoin="round"/>
<path d="M15.8333 6.33331H22.1667" stroke="#263238" stroke-width="2" stroke-linecap="round" stroke-linejoin="round"/>
<path d="M25.3333 12.6667L12.6667 25.3334" stroke="#263238" stroke-width="2" stroke-linecap="round" stroke-linejoin="round"/>
<path d="M31.6667 15.8333V22.1666" stroke="#263238" stroke-width="2" stroke-linecap="round" stroke-linejoin="round"/>
</svg>
