<svg width="569" height="383" viewBox="0 0 569 383" fill="none" xmlns="http://www.w3.org/2000/svg">
<path d="M523.503 299.049V337.849H529.98V342.063H523.503V368.042H402.34V344.402H411.345V339.263H402.366V331.554H398.382V328.042H403.12V299.049H523.503Z" fill="#F5F5F5"/>
<path d="M434.514 299.16V367.605H402.34V343.974H411.32V339.254L402.34 339.417V331.691L398.279 331.699L398.356 327.708L403.094 327.597V299.049L434.514 299.16Z" fill="#EBEBEB"/>
<path d="M432.226 341.507C432.226 341.747 454.152 341.935 481.185 341.935C508.217 341.935 530.152 341.747 530.152 341.507C530.152 341.267 508.234 341.079 481.185 341.079C454.135 341.079 432.226 341.267 432.226 341.507Z" fill="#E0E0E0"/>
<path d="M432.226 337.567C432.226 337.807 454.152 337.995 481.185 337.995C508.217 337.995 530.152 337.807 530.152 337.567C530.152 337.327 508.234 337.138 481.185 337.138C454.135 337.138 432.226 337.327 432.226 337.567Z" fill="#E0E0E0"/>
<path d="M425.911 326.954C425.911 327.194 447.837 327.391 474.87 327.391C501.903 327.391 523.837 327.194 523.837 326.954C523.837 326.715 501.92 326.526 474.87 326.526C447.82 326.526 425.911 326.723 425.911 326.954Z" fill="#E0E0E0"/>
<path d="M425.329 355.871C425.329 356.102 447.255 356.299 474.296 356.299C501.337 356.299 523.254 356.102 523.254 355.871C523.254 355.64 501.337 355.434 474.296 355.434C447.255 355.434 425.329 355.631 425.329 355.871Z" fill="#E0E0E0"/>
<path d="M268.188 32.077C265.449 30.4215 262.501 29.1396 259.423 28.2654L257.615 19.5887L242.955 19.3318L240.847 27.8971C237.739 28.6583 234.748 29.8337 231.953 31.3917L224.559 26.578L214.011 36.7622L218.561 44.3339C216.903 47.0739 215.621 50.0238 214.748 53.1047L206.069 54.9035L205.812 69.5587L214.423 71.6743C215.186 74.7806 216.361 77.7708 217.918 80.5651L213.069 87.9741L223.273 98.5179L230.848 93.9269C233.591 95.5779 236.541 96.8568 239.622 97.7299L241.421 106.407L256.081 106.664L258.197 98.0554C261.305 97.2927 264.296 96.1174 267.091 94.5608L274.503 99.4173L285.05 89.2332L280.458 81.6614C282.111 78.9234 283.39 75.9765 284.262 72.8991L292.941 71.0919L293.198 56.4366L284.587 54.3296C283.831 51.2236 282.661 48.2333 281.109 45.4388L285.967 38.0298L275.779 27.486L268.205 32.077H268.188ZM260.374 51.5973C262.53 53.8369 263.973 56.6651 264.523 59.7245C265.072 62.7839 264.702 65.9374 263.459 68.7866C262.216 71.6358 260.157 74.053 257.541 75.7329C254.925 77.4128 251.869 78.28 248.76 78.225C245.652 78.1701 242.629 77.1953 240.074 75.424C237.519 73.6527 235.546 71.1641 234.405 68.2727C233.264 65.3813 233.006 62.2168 233.663 59.1787C234.32 56.1406 235.863 53.3653 238.096 51.2033C239.584 49.764 241.34 48.6323 243.266 47.873C245.191 47.1136 247.247 46.7416 249.317 46.7782C251.386 46.8148 253.428 47.2593 255.326 48.0863C257.223 48.9132 258.939 50.1063 260.374 51.5973Z" fill="#EBEBEB"/>
<path d="M186.807 14.8607C185.2 13.8934 183.471 13.1444 181.666 12.6337L180.613 7.57163L172.044 7.42603L170.853 12.4539C169.041 12.9031 167.295 13.5885 165.661 14.4924L161.377 11.6658L155.156 17.593L157.83 22.0127C156.865 23.6195 156.119 25.3478 155.611 27.1519L150.547 28.2054L150.401 36.7707L155.422 38.0041C155.87 39.8003 156.556 41.5287 157.461 43.1433L154.625 47.426L160.572 53.5758L164.993 50.8949C166.598 51.8653 168.328 52.6144 170.134 53.1219L171.188 58.1754L179.756 58.3296L180.981 53.3103C182.794 52.8626 184.54 52.1772 186.173 51.2718L190.457 54.0983L196.618 48.1626L193.936 43.7429C194.905 42.1379 195.651 40.4091 196.155 38.6037L201.219 37.5502L201.373 28.9849L196.378 27.8714C195.927 26.0748 195.239 24.3465 194.33 22.7322L197.166 18.4496L191.229 12.2997L186.807 14.9806V14.8607ZM182.249 26.244C183.51 27.549 184.355 29.1983 184.677 30.9834C185 32.7685 184.787 34.6092 184.063 36.2728C183.34 37.9364 182.139 39.3483 180.613 40.3299C179.087 41.3116 177.304 41.8189 175.49 41.7878C173.676 41.7567 171.911 41.1885 170.42 40.1551C168.928 39.1217 167.777 37.6694 167.111 35.982C166.445 34.2945 166.295 32.4475 166.679 30.6746C167.063 28.9016 167.964 27.2823 169.268 26.0213C170.135 25.1834 171.158 24.5245 172.28 24.0822C173.402 23.6399 174.599 23.4229 175.805 23.4436C177.01 23.4643 178.2 23.7223 179.306 24.2028C180.411 24.6833 181.412 25.3769 182.249 26.244Z" fill="#EBEBEB"/>
<path d="M58.79 146.115C56.661 144.83 54.3703 143.833 51.9783 143.152L50.5817 136.419L39.1945 136.214L37.5494 142.903C35.1363 143.495 32.8136 144.409 30.6435 145.619L24.8942 141.85L16.6945 149.756L20.2674 155.631C18.9795 157.774 17.9825 160.078 17.3028 162.484L10.5682 163.888L10.354 175.195L17.0372 176.83C17.6324 179.254 18.5548 181.585 19.779 183.76L16.009 189.516L23.9175 197.704L29.8038 194.141C31.9283 195.427 34.2166 196.421 36.6069 197.096L38.0121 203.837L49.3992 204.034L51.0357 197.353C53.4474 196.756 55.7695 195.843 57.9417 194.638L63.6996 198.406L71.8907 190.501L68.3263 184.616C69.6131 182.49 70.6074 180.199 71.2824 177.807L78.0427 176.419L78.2397 165.036L71.5566 163.392C70.9565 160.982 70.0434 158.661 68.8405 156.488L72.6104 150.741L64.702 142.544L58.8157 146.115H58.79ZM52.7237 161.276C54.4018 163.014 55.5267 165.21 55.9563 167.587C56.386 169.964 56.101 172.415 55.1374 174.63C54.1738 176.845 52.5749 178.724 50.5428 180.031C48.5107 181.338 46.1367 182.013 43.7208 181.971C41.305 181.929 38.9558 181.172 36.9703 179.796C34.9848 178.419 33.452 176.485 32.5659 174.238C31.6798 171.991 31.48 169.532 31.9919 167.171C32.5038 164.811 33.7043 162.655 35.4417 160.976C36.5959 159.861 37.9585 158.984 39.4518 158.396C40.9452 157.807 42.5399 157.519 44.1448 157.546C45.7497 157.574 47.3335 157.918 48.8055 158.558C50.2775 159.198 51.6089 160.121 52.7237 161.276Z" fill="#EBEBEB"/>
<path d="M10.3541 368.71C10.3541 368.83 135.45 368.933 289.677 368.933C443.904 368.933 569 368.83 569 368.71C569 368.59 443.904 368.488 289.677 368.488C135.45 368.488 10.3541 368.582 10.3541 368.71Z" fill="#263238"/>
<path d="M259.903 0H566.147V239.554H259.903V0Z" fill="white"/>
<path d="M258.694 0H566.087V19.9229H258.694V0Z" fill="#263238"/>
<path d="M548.985 19.9229H566.087V239.554H548.985V19.9229Z" fill="#455A64"/>
<path d="M258.694 19.9229H566.087V33.122H258.694V19.9229Z" fill="#455A64"/>
<path d="M559.815 15.0835C559.87 15.0843 559.925 15.0741 559.977 15.0535C560.028 15.0329 560.075 15.0024 560.115 14.9636C560.155 14.9238 560.187 14.8764 560.209 14.8242C560.23 14.772 560.242 14.716 560.242 14.6595C560.242 14.603 560.23 14.547 560.209 14.4948C560.187 14.4426 560.155 14.3953 560.115 14.3554L550.356 4.43682C550.317 4.39694 550.27 4.36525 550.218 4.34362C550.167 4.32199 550.112 4.31085 550.056 4.31085C550 4.31085 549.945 4.32199 549.893 4.34362C549.842 4.36525 549.795 4.39694 549.756 4.43682C549.716 4.47664 549.684 4.524 549.662 4.57619C549.64 4.62838 549.629 4.68436 549.629 4.74089C549.629 4.79743 549.64 4.85341 549.662 4.90559C549.684 4.95778 549.716 5.00515 549.756 5.04496L559.507 14.955C559.588 15.037 559.699 15.0832 559.815 15.0835Z" fill="white"/>
<path d="M549.97 15.0235C550.026 15.0242 550.082 15.0131 550.134 14.991C550.185 14.9689 550.232 14.9362 550.27 14.8951L560.192 5.13062C560.274 5.05111 560.321 4.94238 560.322 4.82833C560.324 4.71428 560.28 4.60427 560.201 4.52249C560.121 4.44071 560.012 4.39386 559.898 4.39225C559.784 4.39065 559.674 4.43441 559.592 4.51392L549.67 14.2698C549.63 14.3096 549.598 14.357 549.576 14.4092C549.555 14.4613 549.543 14.5173 549.543 14.5739C549.543 14.6304 549.555 14.6864 549.576 14.7386C549.598 14.7907 549.63 14.8381 549.67 14.8779C549.707 14.9222 549.753 14.9581 549.804 14.9832C549.856 15.0083 549.913 15.0221 549.97 15.0235Z" fill="white"/>
<path d="M260.297 33.122C260.297 33.2419 327.788 33.3447 411.028 33.3447C494.268 33.3447 561.777 33.2419 561.777 33.122C561.777 33.0021 494.294 32.8993 411.028 32.8993C327.763 32.8993 260.297 33.0106 260.297 33.122Z" fill="#263238"/>
<path d="M548.985 238.775C549.105 238.775 549.208 190.321 549.208 130.561C549.208 70.8007 549.105 22.3469 548.985 22.3469C548.865 22.3469 548.762 70.7836 548.762 130.561C548.762 190.338 548.865 238.775 548.985 238.775Z" fill="#263238"/>
<path d="M531.42 32.8993C531.645 31.1502 531.72 29.385 531.643 27.6231C531.72 25.8612 531.645 24.096 531.42 22.3469C531.2 24.0964 531.125 25.8612 531.197 27.6231C531.125 29.385 531.2 31.1498 531.42 32.8993Z" fill="#263238"/>
<path d="M513.872 32.8993C514.092 31.1498 514.167 29.385 514.095 27.6231C514.167 25.8612 514.092 24.0964 513.872 22.3469C513.647 24.096 513.572 25.8612 513.65 27.6231C513.572 29.385 513.647 31.1502 513.872 32.8993Z" fill="#263238"/>
<path d="M496.316 32.8993C496.541 31.1502 496.616 29.385 496.539 27.6231C496.616 25.8612 496.541 24.096 496.316 22.3469C496.096 24.0964 496.021 25.8612 496.093 27.6231C496.021 29.385 496.096 31.1498 496.316 32.8993Z" fill="#263238"/>
<path d="M478.768 32.8993C478.989 31.1498 479.063 29.385 478.991 27.6231C479.063 25.8612 478.989 24.0964 478.768 22.3469C478.543 24.096 478.469 25.8612 478.546 27.6231C478.469 29.385 478.543 31.1502 478.768 32.8993Z" fill="#263238"/>
<path d="M461.212 32.8993C461.438 31.1502 461.512 29.385 461.435 27.6231C461.512 25.8612 461.438 24.096 461.212 22.3469C460.992 24.0964 460.918 25.8612 460.989 27.6231C460.918 29.385 460.992 31.1498 461.212 32.8993Z" fill="#263238"/>
<path d="M443.665 32.8993C443.885 31.1498 443.959 29.385 443.887 27.6231C443.959 25.8612 443.885 24.0964 443.665 22.3469C443.439 24.096 443.365 25.8612 443.442 27.6231C443.365 29.385 443.439 31.1502 443.665 32.8993Z" fill="#263238"/>
<path d="M426.108 32.8993C426.334 31.1502 426.408 29.385 426.331 27.6231C426.408 25.8612 426.334 24.096 426.108 22.3469C425.888 24.0964 425.814 25.8612 425.886 27.6231C425.814 29.385 425.888 31.1498 426.108 32.8993Z" fill="#263238"/>
<path d="M408.561 32.8993C408.781 31.1498 408.855 29.385 408.783 27.6231C408.855 25.8612 408.781 24.0964 408.561 22.3469C408.335 24.096 408.261 25.8612 408.338 27.6231C408.261 29.385 408.335 31.1502 408.561 32.8993Z" fill="#263238"/>
<path d="M391.004 32.8993C391.23 31.1502 391.304 29.385 391.227 27.6231C391.304 25.8612 391.23 24.096 391.004 22.3469C390.784 24.0964 390.71 25.8612 390.782 27.6231C390.71 29.385 390.784 31.1498 391.004 32.8993Z" fill="#263238"/>
<path d="M373.457 32.8993C373.677 31.1498 373.751 29.385 373.68 27.6231C373.751 25.8612 373.677 24.0964 373.457 22.3469C373.237 24.0964 373.162 25.8612 373.234 27.6231C373.162 29.385 373.237 31.1498 373.457 32.8993Z" fill="#263238"/>
<path d="M355.901 32.8993C356.126 31.1502 356.2 29.385 356.123 27.6231C356.2 25.8612 356.126 24.096 355.901 22.3469C355.68 24.0964 355.606 25.8612 355.678 27.6231C355.606 29.385 355.68 31.1498 355.901 32.8993Z" fill="#263238"/>
<path d="M338.353 32.8993C338.573 31.1498 338.648 29.385 338.576 27.6231C338.648 25.8612 338.573 24.0964 338.353 22.3469C338.133 24.0964 338.058 25.8612 338.13 27.6231C338.058 29.385 338.133 31.1498 338.353 32.8993Z" fill="#263238"/>
<path d="M320.797 32.8993C321.028 31.1507 321.105 29.3852 321.028 27.6231C321.105 25.861 321.028 24.0955 320.797 22.3469C320.577 24.0964 320.502 25.8612 320.574 27.6231C320.502 29.385 320.577 31.1498 320.797 32.8993Z" fill="#263238"/>
<path d="M303.249 32.8993C303.469 31.1498 303.544 29.385 303.472 27.6231C303.544 25.8612 303.469 24.0964 303.249 22.3469C303.029 24.0964 302.954 25.8612 303.026 27.6231C302.954 29.385 303.029 31.1498 303.249 32.8993Z" fill="#263238"/>
<path d="M285.701 32.8993C285.922 31.1498 285.996 29.385 285.924 27.6231C285.996 25.8612 285.922 24.0964 285.701 22.3469C285.47 24.0955 285.393 25.861 285.47 27.6231C285.393 29.3852 285.47 31.1507 285.701 32.8993Z" fill="#263238"/>
<path d="M268.145 32.8993C268.365 31.1498 268.44 29.385 268.368 27.6231C268.44 25.8612 268.365 24.0964 268.145 22.3469C267.925 24.0964 267.85 25.8612 267.922 27.6231C267.85 29.385 267.925 31.1498 268.145 32.8993Z" fill="#263238"/>
<path d="M548.985 48.0513C551.107 48.2769 553.243 48.3513 555.377 48.274C557.513 48.3515 559.652 48.277 561.777 48.0513C559.651 47.8308 557.513 47.7564 555.377 47.8286C553.243 47.7565 551.108 47.8309 548.985 48.0513Z" fill="#263238"/>
<path d="M548.985 64.2226C551.107 64.4482 553.243 64.5226 555.377 64.4453C557.513 64.5227 559.652 64.4483 561.777 64.2226C559.651 64.0021 557.513 63.9277 555.377 63.9999C553.243 63.9278 551.108 64.0022 548.985 64.2226Z" fill="#263238"/>
<path d="M548.985 80.3939C551.108 80.6143 553.243 80.6887 555.377 80.6166C557.513 80.6888 559.651 80.6144 561.777 80.3939C559.651 80.1733 557.513 80.0989 555.377 80.1712C553.243 80.0991 551.108 80.1735 548.985 80.3939Z" fill="#263238"/>
<path d="M548.985 96.5652C551.108 96.7856 553.243 96.86 555.377 96.7879C557.513 96.8601 559.651 96.7857 561.777 96.5652C559.652 96.3395 557.513 96.2651 555.377 96.3425C553.243 96.2652 551.107 96.3396 548.985 96.5652Z" fill="#263238"/>
<path d="M548.985 112.728C551.107 112.953 553.243 113.028 555.377 112.95C557.513 113.028 559.652 112.953 561.777 112.728C559.651 112.507 557.513 112.433 555.377 112.505C553.243 112.433 551.108 112.507 548.985 112.728Z" fill="#263238"/>
<path d="M548.985 128.942C551.108 129.162 553.243 129.237 555.377 129.165C557.513 129.237 559.651 129.163 561.777 128.942C559.651 128.721 557.513 128.647 555.377 128.719C553.243 128.647 551.108 128.722 548.985 128.942Z" fill="#263238"/>
<path d="M548.985 145.07C551.108 145.291 553.243 145.365 555.377 145.293C557.513 145.365 559.651 145.291 561.777 145.07C559.652 144.845 557.513 144.77 555.377 144.848C553.243 144.77 551.107 144.845 548.985 145.07Z" fill="#263238"/>
<path d="M548.985 161.242C551.108 161.462 553.243 161.536 555.377 161.464C557.513 161.537 559.651 161.462 561.777 161.242C559.652 161.016 557.513 160.942 555.377 161.019C553.243 160.942 551.107 161.016 548.985 161.242Z" fill="#263238"/>
<path d="M548.985 177.404C551.107 177.63 553.243 177.704 555.377 177.627C557.513 177.705 559.652 177.63 561.777 177.404C559.651 177.184 557.513 177.109 555.377 177.182C553.243 177.11 551.108 177.184 548.985 177.404Z" fill="#263238"/>
<path d="M548.985 193.576C551.108 193.796 553.243 193.87 555.377 193.798C557.513 193.871 559.651 193.796 561.777 193.576C559.651 193.355 557.513 193.281 555.377 193.353C553.243 193.281 551.108 193.355 548.985 193.576Z" fill="#263238"/>
<path d="M548.985 209.747C551.108 209.967 553.243 210.042 555.377 209.97C557.513 210.042 559.651 209.967 561.777 209.747C559.652 209.521 557.513 209.447 555.377 209.524C553.243 209.447 551.107 209.521 548.985 209.747Z" fill="#263238"/>
<path d="M548.985 225.91C551.107 226.141 553.243 226.218 555.377 226.141C557.513 226.218 559.652 226.141 561.777 225.91C559.65 225.703 557.512 225.643 555.377 225.73C553.244 225.643 551.109 225.704 548.985 225.91Z" fill="#263238"/>
<path d="M365.308 53.9956C365.308 54.0813 365.351 54.184 365.394 54.3725C365.437 54.5609 365.523 55.0234 365.651 55.5374C366.046 57.0006 366.55 58.4321 367.159 59.82C369.483 65.1426 373.268 69.6981 378.075 72.9592L378.169 72.7193L369.884 71.4688H369.653L369.712 71.6915C370.766 75.4774 371.846 79.7258 374.142 83.8028C375.311 85.9151 376.852 87.7984 378.692 89.3617C380.64 91.0481 383.009 92.1758 385.547 92.6251V92.2396L378.752 92.8392H378.546V93.0448C379.553 101.459 381.387 109.753 384.021 117.807C386.889 126.667 390.364 135.318 394.423 143.7C395.863 146.766 397.379 149.756 398.879 152.685L399.393 153.696L399.298 152.565C397.799 135.297 395.948 119.066 397.054 104.899V104.831C395.073 96.6468 392.345 88.6619 388.905 80.9763C387.431 77.783 385.754 74.6875 383.884 71.7086C382.274 69.1903 380.487 66.7889 378.538 64.5224C375.806 61.3349 372.652 58.534 369.164 56.1969C368.564 55.7858 368.007 55.4603 367.536 55.1776C367.065 54.895 366.679 54.6637 366.311 54.4838L365.308 53.9699L366.302 54.5523C366.936 54.9035 367.905 55.486 369.096 56.2654C372.55 58.65 375.668 61.4876 378.366 64.7022C380.295 66.9657 382.059 69.3644 383.644 71.8799C385.495 74.8582 387.155 77.9508 388.614 81.139C392.022 88.817 394.72 96.7902 396.677 104.959V104.891C395.537 119.118 397.371 135.366 398.861 152.634L399.281 152.505C397.782 149.576 396.274 146.595 394.834 143.537C386.523 126.227 380.723 108.771 378.992 93.0019L378.812 93.2247L385.606 92.6165L387.183 92.4709L385.624 92.2311C383.152 91.8034 380.842 90.7141 378.94 89.0791C377.129 87.5444 375.608 85.6962 374.451 83.623C372.172 79.6144 371.083 75.3917 370.012 71.6315L369.841 71.82L378.144 73.0363L378.718 73.1219L378.229 72.7964C375.498 70.9544 373.082 68.684 371.075 66.0727C369.579 64.1378 368.316 62.0334 367.313 59.8029C366.693 58.4132 366.169 56.9822 365.745 55.5202C365.48 54.6209 365.368 54.2097 365.308 53.9956Z" fill="#263238"/>
<path d="M400.926 162.21C400.856 162.025 400.796 161.836 400.747 161.644C400.635 161.267 400.515 160.693 400.361 159.931C400.078 158.415 399.744 156.171 399.393 153.259C398.69 147.426 397.928 138.946 397.174 128.419C396.42 117.893 396.163 105.113 398.887 91.2204C400.296 83.9332 402.569 76.8397 405.656 70.0898C407.282 66.5025 409.217 63.0634 411.44 59.8114C413.708 56.4226 416.204 53.1917 418.911 50.1412L418.526 50.0127C418.988 54.1583 419.434 58.578 419.802 63.032C420.145 67.3146 420.513 71.5973 420.436 75.7771C420.461 77.8436 419.694 79.8414 418.294 81.3617C416.942 82.8809 415.329 84.1457 413.53 85.0962L412.005 85.9527L413.719 85.533L421.901 83.4859L421.636 83.2803C421.693 86.0327 421.781 88.745 421.901 91.4174C422.038 94.0897 422.167 96.7193 422.493 99.306C422.493 99.6315 422.587 99.957 422.647 100.282C422.695 100.566 422.695 100.855 422.647 101.139C422.527 101.751 422.288 102.333 421.944 102.852C421.249 103.888 420.432 104.837 419.511 105.679C417.725 107.349 415.805 108.87 413.77 110.227L413.247 110.587H422.844L422.655 110.398C422.473 118.236 420.849 125.974 417.866 133.225C415.623 138.809 412.92 144.198 409.786 149.336C407.215 153.619 404.945 156.813 403.377 158.972C402.597 160.051 401.98 160.856 401.56 161.404L401.089 162.021L400.926 162.235C400.926 162.235 400.986 162.175 401.098 162.038L401.603 161.439C402.032 160.908 402.674 160.102 403.471 159.032C405.065 156.899 407.353 153.713 409.974 149.447C413.142 144.314 415.873 138.925 418.14 133.336C421.172 126.051 422.828 118.268 423.024 110.381V110.201H413.916L414.019 110.552C416.076 109.185 418.019 107.653 419.828 105.97C420.77 105.103 421.607 104.129 422.321 103.066C422.694 102.509 422.954 101.883 423.084 101.225C423.144 100.885 423.144 100.537 423.084 100.197C423.032 99.8885 422.964 99.5715 422.93 99.2546C422.613 96.685 422.493 94.064 422.364 91.4002C422.236 88.7364 422.158 86.0212 422.098 83.2718V83.0062L421.833 83.0662L413.642 85.1133L413.796 85.5159C415.65 84.5467 417.311 83.2461 418.697 81.6786C419.408 80.8761 419.986 79.9653 420.411 78.9806C420.603 78.4774 420.752 77.9588 420.856 77.4302C420.856 76.8992 420.976 76.3596 420.976 75.8285C421.027 73.7129 420.976 71.5459 420.813 69.456C420.65 67.366 420.53 65.1733 420.342 63.032C419.974 58.5609 419.485 54.1498 419.065 49.9956L419.005 49.5074L418.68 49.8757C415.93 52.9292 413.391 56.1657 411.08 59.563C408.85 62.8392 406.907 66.3009 405.271 69.9099C402.183 76.6924 399.91 83.8171 398.502 91.1347C395.794 105.079 396.094 117.893 396.874 128.428C397.653 138.963 398.476 147.477 399.23 153.267C399.607 156.18 399.967 158.407 400.284 159.94C400.389 160.519 400.529 161.091 400.704 161.653C400.748 161.849 400.823 162.037 400.926 162.21Z" fill="#263238"/>
<path d="M388.537 165.225C388.559 165.06 388.559 164.893 388.537 164.728C388.537 164.402 388.537 163.914 388.46 163.28C388.357 162.004 388.151 160.12 387.834 157.704C387.2 152.873 386.121 145.876 384.69 137.199C383.259 128.522 381.065 118.107 375.933 107.452C374.639 104.805 373.148 102.167 371.52 99.5373L369.019 95.5801C368.162 94.2525 367.416 92.8735 366.525 91.4945C364.647 88.7767 362.417 86.3199 359.893 84.1883C357.315 81.9676 354.558 79.9623 351.651 78.1926L351.265 77.9528L351.368 78.4067C351.822 81.9014 352.336 85.593 352.919 89.3275C353.493 92.8649 354.033 96.3596 354.941 99.76C355.051 100.189 355.191 100.61 355.361 101.019L355.661 101.627C355.772 101.824 355.909 102.004 356.029 102.193C356.565 102.901 357.206 103.522 357.931 104.034C359.365 105.021 360.964 105.744 362.652 106.167L362.704 105.73H355.669H355.395L355.455 105.996C356.423 110.467 357.391 114.835 357.94 119.092C357.94 119.357 357.983 119.623 358 119.888C358.006 120.182 358.064 120.472 358.171 120.745C358.409 121.255 358.744 121.715 359.157 122.098C359.938 122.816 360.8 123.44 361.727 123.957C363.524 124.967 365.401 125.826 367.339 126.527V126.158L360.09 127.931H359.911L359.936 128.085C361.651 134.421 364.559 140.372 368.504 145.619C371.494 149.649 374.825 153.414 378.461 156.873C381.468 159.751 383.996 161.824 385.735 163.203C386.592 163.888 387.286 164.394 387.749 164.736L388.28 165.113L388.468 165.225L388.288 165.079L387.783 164.685C387.329 164.342 386.66 163.828 385.804 163.117C384.09 161.713 381.588 159.623 378.606 156.719C375.006 153.245 371.707 149.471 368.744 145.439C364.841 140.214 361.965 134.297 360.27 128L360.133 128.222L367.391 126.509L367.999 126.355L367.408 126.133C365.493 125.429 363.639 124.569 361.864 123.563C360.959 123.057 360.114 122.451 359.345 121.756C358.984 121.409 358.693 120.996 358.488 120.539C358.395 120.314 358.345 120.073 358.343 119.828C358.343 119.554 358.343 119.28 358.283 118.972C357.734 114.689 356.766 110.312 355.806 105.824L355.601 106.09H362.627H364.34L362.627 105.644C360.996 105.235 359.452 104.535 358.068 103.58C357.384 103.105 356.777 102.527 356.269 101.867C355.785 101.177 355.436 100.401 355.241 99.5801C354.384 96.2311 353.819 92.7279 353.244 89.199C352.662 85.4731 352.148 81.7814 351.694 78.2954L351.359 78.5181C354.248 80.2834 356.982 82.2891 359.534 84.5138C362.031 86.6163 364.24 89.0382 366.105 91.7172C366.962 93.0534 367.742 94.4667 368.599 95.7943L371.101 99.7514C372.704 102.297 374.174 104.925 375.505 107.623C380.646 118.201 382.813 128.616 384.33 137.242C385.846 145.867 386.9 152.891 387.603 157.721C387.946 160.128 388.177 162.004 388.306 163.272C388.434 164.539 388.537 165.225 388.537 165.225Z" fill="#263238"/>
<path d="M408.064 173.036C408.064 172.788 408.115 172.351 408.175 171.417C408.235 170.886 408.321 170.227 408.415 169.464C408.509 168.702 408.681 167.803 408.912 166.809C410.215 161.201 412.007 155.719 414.267 150.424C414.953 148.711 415.715 146.998 416.546 145.156C417.393 143.257 418.339 141.404 419.382 139.606C420.527 137.694 421.789 135.854 423.161 134.098C424.558 132.265 426.014 130.39 427.582 128.522C430.811 124.558 434.514 121.005 438.609 117.944C443.015 114.616 448.138 112.363 453.569 111.366L453.338 111.032C452.132 113.089 450.611 114.944 448.831 116.531C446.231 118.859 443.138 120.569 439.783 121.533L438.841 121.799L439.809 121.961L446.072 123.015L445.927 122.681C443.904 125.756 441.874 128.771 439.166 130.955C436.459 133.139 433.117 134.381 429.93 133.884L428.276 133.619L429.818 134.27L434.574 136.291L434.479 136.034C431.716 141.592 428.462 146.892 424.755 151.871C421.516 156.385 418.526 160.205 416.041 163.332C413.556 166.458 411.542 168.865 410.163 170.509L408.595 172.385C408.235 172.813 408.081 173.028 408.064 173.036C408.268 172.846 408.459 172.643 408.638 172.428L410.257 170.586C411.662 168.968 413.684 166.569 416.255 163.469C418.825 160.368 421.781 156.556 425.046 152.06C428.791 147.079 432.078 141.77 434.865 136.197L434.951 136.017L434.762 135.94L430.015 133.901L429.895 134.287C433.237 134.835 436.75 133.499 439.466 131.289C442.182 129.079 444.299 125.996 446.321 122.921L446.501 122.638L446.175 122.587L439.912 121.524V121.953C445.719 120.288 450.666 116.459 453.732 111.255L453.972 110.844L453.509 110.921C448.009 111.936 442.822 114.221 438.361 117.593C434.245 120.684 430.525 124.268 427.282 128.265C425.714 130.141 424.258 132.025 422.87 133.867C421.49 135.638 420.225 137.494 419.082 139.426C418.037 141.236 417.093 143.104 416.255 145.019C415.432 146.841 414.678 148.605 413.993 150.312C411.761 155.631 410.014 161.141 408.775 166.775C408.552 167.777 408.441 168.668 408.312 169.447C408.184 170.227 408.167 170.878 408.115 171.409C408.072 172.351 408.072 172.788 408.064 173.036Z" fill="#263238"/>
<path d="M419.914 182.903V191.957H415.681L410.883 222.415H384.047L379.575 191.957H375.513V182.903H419.914Z" fill="#EBB762"/>
<path d="M419.914 182.903C419.914 182.903 419.854 182.903 419.717 182.903H419.117H416.735L407.687 182.852L375.513 182.749H375.308V182.903C375.308 185.773 375.308 188.813 375.308 191.957V192.162H379.592L379.377 191.974C380.38 198.826 381.46 206.209 382.582 213.85C383.01 216.753 383.439 219.623 383.85 222.415V222.612H384.039H410.874H411.045V222.441C412.982 209.927 414.618 199.417 415.767 191.974L415.647 192.077H419.879H419.982V191.974C419.982 189.027 419.939 186.758 419.922 185.207C419.922 184.465 419.922 183.894 419.922 183.494C419.922 183.109 419.922 182.929 419.922 182.929C419.922 182.929 419.922 183.135 419.922 183.529C419.922 183.923 419.922 184.522 419.922 185.242C419.922 186.775 419.922 189.027 419.862 191.948L419.965 191.845H415.732H415.629V191.948C414.438 199.383 412.759 209.884 410.754 222.389L410.951 222.218H384.116L384.338 222.406C383.919 219.588 383.482 216.719 383.079 213.841C381.948 206.201 380.86 198.818 379.849 191.974V191.794H375.607L375.813 192.008C375.813 188.865 375.813 185.824 375.813 182.955L375.616 183.152L407.661 183.049L416.752 182.998L419.057 182.903H419.914Z" fill="#263238"/>
<path d="M272.207 222.415C272.207 222.535 330.616 222.638 402.649 222.638C474.681 222.638 533.099 222.535 533.099 222.415C533.099 222.295 474.707 222.192 402.649 222.192C330.59 222.192 272.207 222.304 272.207 222.415Z" fill="#263238"/>
<path d="M367.091 105.936C367.097 106.006 367.114 106.076 367.142 106.141C367.193 106.295 367.262 106.484 367.339 106.724C367.528 107.263 367.785 108.008 368.119 108.951C368.804 110.886 369.832 113.67 371.126 117.105C373.697 123.957 377.398 133.379 381.211 143.923C383.105 149.19 384.801 154.201 386.258 158.861C387.714 163.52 388.888 167.691 389.796 171.237C390.276 173.01 390.653 174.663 390.979 176.042C391.304 177.422 391.587 178.681 391.836 179.683C392.084 180.685 392.213 181.396 392.341 181.995C392.393 182.235 392.444 182.432 392.478 182.586C392.489 182.658 392.512 182.728 392.547 182.792C392.556 182.721 392.556 182.649 392.547 182.578C392.547 182.415 392.487 182.218 392.444 181.978C392.341 181.404 392.195 180.633 392.016 179.648C391.836 178.663 391.596 177.404 391.27 175.991C390.944 174.578 390.619 172.942 390.148 171.16C389.291 167.597 388.117 163.383 386.72 158.741C385.324 154.098 383.602 149.045 381.708 143.777C377.895 133.242 374.142 123.828 371.495 116.993L368.359 108.891C367.99 107.966 367.708 107.229 367.502 106.689L367.271 106.124C367.225 106.049 367.164 105.984 367.091 105.936Z" fill="#263238"/>
<path d="M406.419 99.6829C406.299 99.6829 404.602 118.252 402.64 141.182C400.678 164.111 399.17 182.706 399.298 182.715C399.427 182.723 401.115 164.145 403.077 141.216C405.039 118.287 406.547 99.7 406.419 99.6829Z" fill="#263238"/>
<path d="M405.459 183.083C405.643 182.639 405.792 182.181 405.905 181.713C406.17 180.856 406.547 179.537 407.044 177.953C408.021 174.783 409.495 170.441 411.405 165.756C413.316 161.07 415.312 156.942 416.829 153.987C417.583 152.514 418.208 151.323 418.654 150.509C418.899 150.095 419.111 149.663 419.288 149.216C418.991 149.595 418.727 149.999 418.5 150.424C418.011 151.212 417.343 152.385 416.546 153.85C412.423 161.467 409.136 169.508 406.744 177.833C406.29 179.434 405.947 180.736 405.742 181.644C405.602 182.114 405.508 182.596 405.459 183.083Z" fill="#263238"/>
<path d="M375.633 191.768C375.633 191.888 385.615 191.991 397.91 191.991C410.206 191.991 420.188 191.888 420.188 191.768C420.188 191.648 410.214 191.546 397.91 191.546C385.607 191.546 375.633 191.64 375.633 191.768Z" fill="#263238"/>
<path d="M370.055 181.661L361.144 201.867L358.034 192.976L350.408 190.184L370.055 181.661Z" fill="#263238"/>
<path d="M341.84 197.062H353.039V208.257H341.84V197.062Z" fill="white"/>
<path d="M341.849 208.257C341.849 208.257 341.849 207.94 341.892 207.4C341.934 206.86 341.892 206.047 341.943 205.105C341.943 203.092 342.003 200.334 342.037 197.053L341.849 197.242H353.039C353.09 197.242 352.619 196.822 352.816 197.019V202.912C352.816 204.788 352.816 206.561 352.816 208.197L353.005 208L344.95 208.094L342.654 208.145C342.368 208.141 342.081 208.158 341.797 208.197C342.051 208.211 342.306 208.211 342.56 208.197L344.813 208.248L352.987 208.342H353.184V208.154C353.184 206.518 353.184 204.728 353.184 202.869V196.976L352.962 196.753H341.772H341.575V196.95C341.575 200.282 341.652 203.083 341.677 205.122C341.677 206.047 341.677 206.835 341.729 207.374C341.735 207.672 341.776 207.968 341.849 208.257Z" fill="#263238"/>
<path d="M347.444 207.212C347.741 204.181 347.741 201.129 347.444 198.098C347.147 201.129 347.147 204.181 347.444 207.212Z" fill="#263238"/>
<path d="M342.886 202.655C345.917 202.952 348.97 202.952 352.002 202.655C348.97 202.358 345.917 202.358 342.886 202.655Z" fill="#263238"/>
<path d="M258.694 33.122H270.998V239.554H258.694V33.122Z" fill="#455A64"/>
<path d="M258.694 63.5459C258.694 60.1495 261.449 57.3961 264.846 57.3961C268.244 57.3961 270.998 60.1495 270.998 63.5459V93.533C270.998 96.9295 268.244 99.6829 264.846 99.6829C261.449 99.6829 258.694 96.9295 258.694 93.533V63.5459Z" fill="#263238"/>
<path d="M477.895 102.013C477.895 102.013 477.895 101.936 477.895 101.799C477.895 101.661 477.895 101.447 477.895 101.19C477.895 100.642 477.895 99.8628 477.895 98.8606C477.895 96.805 477.895 93.8242 477.946 90.0384C477.946 82.4581 478.006 71.6572 478.04 58.7151L477.852 58.9035H521.155C521.215 58.9035 520.735 58.4838 520.941 58.6894V70.3468C520.941 74.1669 520.941 77.9099 520.941 81.5416C520.941 88.8135 520.941 95.6743 520.941 101.97L521.138 101.773L489.796 101.876L480.979 101.927H478.64H478.032H477.826H478.597H480.902L489.676 101.978L521.138 102.073H521.327V101.884C521.327 95.5887 521.327 88.7279 521.327 81.4559C521.327 77.8243 521.327 74.0812 521.327 70.2611V58.7065C521.524 58.895 521.052 58.4239 521.095 58.4753H477.792H477.595V58.7065C477.637 71.7001 477.672 82.5437 477.697 90.1497C477.697 93.9184 477.697 96.882 477.749 98.9291C477.749 99.9227 477.749 100.685 477.749 101.225C477.749 101.473 477.749 101.661 477.749 101.807C477.786 101.883 477.835 101.952 477.895 102.013Z" fill="#263238"/>
<path d="M516.254 63.6573H515.663H513.889L507.129 63.6059L482.838 63.5117H482.65V63.7001C482.65 73.4131 482.65 84.8735 482.65 97.1047C482.607 97.0534 483.078 97.5244 482.881 97.3274H500.455H516.211H516.409V97.1304C516.409 87.1005 516.331 78.7407 516.306 72.8564C516.306 69.9613 516.306 67.7172 516.254 66.0898C516.254 65.3361 516.254 64.7451 516.254 64.3168C516.254 64.1369 516.254 63.9913 516.254 63.8714C516.254 63.7515 516.254 63.7258 516.254 63.7258C516.251 63.7828 516.251 63.84 516.254 63.8971C516.254 64.017 516.254 64.1712 516.254 64.3596C516.254 64.7965 516.254 65.396 516.254 66.1669C516.254 67.7686 516.254 70.0641 516.203 73.0191C516.203 78.8778 516.143 87.1947 516.109 97.1733L516.297 96.9763H500.54H482.89L483.104 97.199C483.104 84.9677 483.104 73.5074 483.104 63.7943L482.907 63.9913L507.069 63.8885L513.924 63.8371H515.732H516.203C516.229 63.78 516.246 63.7194 516.254 63.6573Z" fill="#263238"/>
<path d="M521.258 58.7065C520.272 59.3668 519.371 60.1465 518.576 61.0277C517.679 61.8021 516.881 62.6854 516.203 63.6573C517.198 63.0091 518.103 62.2314 518.893 61.3447C519.786 60.5648 520.58 59.6788 521.258 58.7065Z" fill="#263238"/>
<path d="M478.049 58.8607C478.643 59.8312 479.36 60.7208 480.182 61.5074C480.903 62.3922 481.732 63.1835 482.65 63.8628C482.06 62.887 481.342 61.9941 480.516 61.2076C479.799 60.3213 478.97 59.5323 478.049 58.8607Z" fill="#263238"/>
<path d="M478.263 102.098C479.022 101.34 479.723 100.527 480.362 99.6658C481.122 98.9153 481.824 98.1078 482.461 97.2504C480.666 98.4811 479.229 100.166 478.297 102.133L478.263 102.098Z" fill="#263238"/>
<path d="M516.58 97.0105C517.214 97.9758 517.968 98.8565 518.825 99.6315C519.578 100.51 520.442 101.287 521.395 101.944C520.761 100.979 520.007 100.098 519.15 99.3231C518.395 98.4469 517.531 97.6698 516.58 97.0105Z" fill="#263238"/>
<path d="M508.963 70.3297C508.852 70.3184 508.74 70.3184 508.629 70.3297H507.609L503.702 70.2783L489.616 70.1755H489.427V70.3725C489.427 75.9999 489.427 82.6294 489.427 89.7044L489.659 89.927H499.838H508.963H509.151V89.73C509.108 83.9313 509.074 79.0919 509.057 75.6487C509.057 74.0042 509.014 72.6851 509.006 71.7429C509.006 71.3232 509.006 70.9892 509.006 70.7322C509.006 70.4753 509.006 70.3896 509.006 70.3982C508.995 70.5236 508.995 70.6496 509.006 70.775C509.006 71.0377 509.006 71.3889 509.006 71.8286C509.006 72.7793 509.006 74.1069 508.963 75.7772C508.963 79.2033 508.903 83.9827 508.86 89.73L509.057 89.5416H499.932H489.719C489.513 89.3446 489.984 89.8157 489.933 89.7643C489.933 82.6894 489.933 76.0598 489.933 70.4324L489.736 70.6209L503.693 70.5267L507.652 70.4753H508.706L508.963 70.3297Z" fill="#263238"/>
<path d="M258.694 239.734C258.694 239.854 327.309 239.957 411.928 239.957C496.547 239.957 565.17 239.854 565.17 239.734C565.17 239.614 496.573 239.511 411.928 239.511C327.283 239.511 258.694 239.606 258.694 239.734Z" fill="#263238"/>
<path d="M211.878 113.756H324.412V179.828H211.878V113.756Z" fill="#455A64"/>
<path d="M211.878 179.828C211.878 179.828 211.878 179.417 211.878 178.629C211.878 177.841 211.878 176.685 211.878 175.203C211.878 172.162 211.878 167.7 211.921 161.97C211.921 150.526 211.972 134.03 212.006 113.79L211.835 113.961L324.361 114.013L324.138 113.79C324.138 137.182 324.138 159.52 324.138 179.863L324.344 179.648L243.392 179.751L220.155 179.811H213.96H212.358H211.809H212.341H213.917H220.069L243.255 179.863L324.344 179.965H324.55V179.76C324.55 159.417 324.55 137.079 324.55 113.687V113.524H324.318L211.792 113.567H211.621V113.747C211.621 134.03 211.689 150.578 211.715 162.038C211.715 167.743 211.715 172.197 211.758 175.229C211.758 176.728 211.758 177.875 211.758 178.655C211.758 179.434 211.878 179.828 211.878 179.828Z" fill="#263238"/>
<path d="M302.341 144.599H313.342V133.61H302.341V144.599ZM312.486 143.743H303.198V134.467H312.486V143.743Z" fill="#263238"/>
<path d="M211.878 113.756H286.695V128.111H211.878V113.756Z" fill="#263238"/>
<path d="M291.039 120.711C291.039 120.839 297.037 120.933 304.474 120.933C311.911 120.933 317.918 120.839 317.918 120.711C317.918 120.582 311.92 120.488 304.474 120.488C297.028 120.488 291.039 120.591 291.039 120.711Z" fill="#263238"/>
<path d="M307.37 129.439H317.506V139.571H307.37V129.439Z" fill="#EBB762"/>
<path d="M245.08 140.128H291.219V144.043H245.08V140.128Z" fill="#EBB762"/>
<path d="M290.345 144.556L291.836 146.749C291.878 146.811 291.903 146.884 291.907 146.958C291.911 147.033 291.894 147.108 291.859 147.174C291.824 147.24 291.771 147.295 291.707 147.334C291.642 147.372 291.568 147.392 291.493 147.392H288.555C288.48 147.392 288.406 147.372 288.341 147.334C288.277 147.295 288.224 147.24 288.189 147.174C288.154 147.108 288.137 147.033 288.141 146.958C288.145 146.884 288.17 146.811 288.212 146.749L289.677 144.556C289.715 144.503 289.765 144.46 289.823 144.43C289.881 144.401 289.946 144.385 290.011 144.385C290.076 144.385 290.141 144.401 290.199 144.43C290.257 144.46 290.307 144.503 290.345 144.556Z" fill="white"/>
<path d="M245.08 151.786H291.219V155.7H245.08V151.786Z" fill="#EBEBEB"/>
<path d="M248.395 156.205L249.886 158.407C249.929 158.469 249.953 158.541 249.957 158.616C249.961 158.691 249.944 158.765 249.909 158.831C249.874 158.898 249.821 158.953 249.757 158.991C249.692 159.029 249.619 159.049 249.544 159.049H246.605C246.53 159.049 246.456 159.029 246.392 158.991C246.327 158.953 246.274 158.898 246.239 158.831C246.204 158.765 246.187 158.691 246.191 158.616C246.195 158.541 246.22 158.469 246.262 158.407L247.693 156.214C247.729 156.153 247.78 156.103 247.841 156.067C247.902 156.032 247.971 156.013 248.042 156.012C248.112 156.011 248.182 156.029 248.244 156.063C248.306 156.096 248.358 156.146 248.395 156.205Z" fill="white"/>
<path d="M245.08 164.377H291.219V168.291H245.08V164.377Z" fill="#263238"/>
<path d="M279.352 168.805L280.843 170.998C280.885 171.06 280.91 171.132 280.914 171.207C280.918 171.282 280.901 171.356 280.866 171.422C280.831 171.488 280.778 171.544 280.714 171.582C280.649 171.62 280.575 171.64 280.5 171.64H277.562C277.487 171.64 277.413 171.62 277.348 171.582C277.284 171.544 277.231 171.488 277.196 171.422C277.161 171.356 277.144 171.282 277.148 171.207C277.152 171.132 277.177 171.06 277.219 170.998L278.667 168.805C278.704 168.748 278.755 168.702 278.815 168.67C278.875 168.638 278.942 168.621 279.01 168.621C279.077 168.621 279.144 168.638 279.204 168.67C279.264 168.702 279.315 168.748 279.352 168.805Z" fill="white"/>
<path d="M221.243 139.452H239.167V144.719H221.243V139.452Z" fill="#263238"/>
<path d="M221.243 151.109H239.167V156.377H221.243V151.109Z" fill="#263238"/>
<path d="M221.243 163.7H239.167V168.968H221.243V163.7Z" fill="#263238"/>
<path d="M430.941 258.235H534.83V314.895H430.941V258.235Z" fill="#455A64"/>
<path d="M430.932 314.895C430.932 314.895 430.932 314.543 430.932 313.875C430.932 313.207 430.932 312.162 430.932 310.912C430.932 308.342 430.932 304.496 430.975 299.588C430.975 289.781 431.026 275.606 431.061 258.235L430.889 258.407L534.779 258.458L534.556 258.235C534.556 278.261 534.556 297.43 534.556 314.895L534.77 314.689L460.184 314.809L438.695 314.869H432.963H430.966H431.455H432.911H438.609L460.03 314.929L534.856 315.032H535.061V314.818C535.061 297.353 535.061 278.184 535.061 258.158V257.935H534.83L430.941 257.995H430.778V258.278C430.778 275.726 430.847 289.901 430.864 299.734C430.864 304.625 430.864 308.428 430.864 311.023C430.864 312.299 430.864 313.284 430.864 313.952C430.864 314.621 430.932 314.895 430.932 314.895Z" fill="#263238"/>
<path d="M511.979 286.749H522.192V276.539H511.979V286.749ZM521.335 285.892H512.835V277.396H521.335V285.892Z" fill="#263238"/>
<path d="M515.26 306.569C515.279 306.284 515.279 305.998 515.26 305.713C515.26 305.142 515.277 304.396 515.312 303.477C515.312 301.516 515.372 298.826 515.415 295.631L515.217 295.828H526.125L525.902 295.606V297.079C525.902 297.576 525.902 298.055 525.902 298.544V301.361C525.902 303.186 525.902 304.916 525.902 306.501L526.09 306.312L518.242 306.406L516.006 306.458C515.483 306.458 515.2 306.458 515.149 306.501C515.395 306.542 515.645 306.559 515.894 306.552L518.088 306.595L526.056 306.698H526.253V306.501C526.253 304.916 526.253 303.186 526.253 301.361C526.253 300.445 526.253 299.503 526.253 298.544V295.606L526.031 295.383H515.123H515.02V295.571C515.02 298.818 515.089 301.567 515.115 303.537C515.115 304.436 515.115 305.164 515.166 305.73C515.171 306.012 515.203 306.293 515.26 306.569Z" fill="#263238"/>
<path d="M430.932 258.235H500.009V271.486H430.932V258.235Z" fill="#263238"/>
<path d="M504.019 264.668C504.019 264.788 509.571 264.89 516.426 264.89C523.28 264.89 528.832 264.788 528.832 264.668C528.832 264.548 523.272 264.437 516.426 264.437C509.58 264.437 504.019 264.539 504.019 264.668Z" fill="#263238"/>
<path d="M516.648 272.719H526.005V282.072H516.648V272.719Z" fill="#EBB762"/>
<path d="M515.26 295.666H526.168V306.569H515.26V295.666Z" fill="#EBB762"/>
<path d="M515.26 302.672V306.569H519.21L515.26 302.672Z" fill="white"/>
<path d="M502.502 306.569C502.502 306.569 502.502 306.269 502.502 305.713C502.502 305.156 502.502 304.394 502.554 303.477C502.554 301.516 502.605 298.826 502.648 295.631L502.459 295.828H513.367L513.144 295.606V298.544C513.144 299.503 513.144 300.445 513.144 301.361C513.144 303.186 513.144 304.916 513.144 306.501L513.341 306.312L505.493 306.406L503.256 306.458C502.734 306.458 502.442 306.458 502.399 306.501C502.646 306.542 502.895 306.56 503.145 306.552L505.338 306.595L513.307 306.698H513.495V306.501C513.495 304.916 513.495 303.186 513.495 301.361C513.495 300.445 513.495 299.503 513.495 298.544V295.606L513.272 295.383H502.365H502.168V295.571C502.168 298.818 502.245 301.567 502.271 303.537C502.271 304.436 502.271 305.164 502.271 305.73C502.315 306.018 502.393 306.299 502.502 306.569Z" fill="#263238"/>
<path d="M502.502 295.666H513.41V306.569H502.502V295.666Z" fill="#EB996E"/>
<path d="M502.502 302.672V306.569H506.444L502.502 302.672Z" fill="white"/>
<path d="M489.736 306.569C489.76 306.284 489.76 305.998 489.736 305.713C489.736 305.142 489.753 304.396 489.787 303.477C489.787 301.516 489.847 298.826 489.89 295.631L489.693 295.828H500.6L500.377 295.606V301.361C500.377 303.186 500.377 304.916 500.377 306.501L500.566 306.312L492.726 306.406L490.481 306.458C489.958 306.458 489.676 306.458 489.624 306.501C489.871 306.541 490.12 306.558 490.37 306.552L492.563 306.595L500.532 306.698H500.729V306.501C500.729 304.916 500.729 303.186 500.729 301.361V295.606C500.926 295.803 500.454 295.331 500.497 295.383H489.59H489.393V295.571C489.393 298.818 489.461 301.567 489.487 303.537C489.487 304.436 489.53 305.164 489.539 305.73C489.585 306.014 489.651 306.294 489.736 306.569Z" fill="#263238"/>
<path d="M489.736 295.666H500.643V306.569H489.736V295.666Z" fill="#FFBE9D"/>
<path d="M489.736 302.672V306.569H493.686L489.736 302.672Z" fill="white"/>
<path d="M476.978 306.569C477.01 306.285 477.025 305.999 477.02 305.713C477.02 305.142 477.038 304.396 477.072 303.477C477.072 301.516 477.132 298.826 477.166 295.631L476.978 295.828H487.885L487.662 295.606V298.544C487.662 299.503 487.662 300.445 487.662 301.361C487.662 303.186 487.662 304.916 487.662 306.501L487.851 306.312L480.002 306.406L477.766 306.458C477.243 306.458 476.961 306.458 476.909 306.501C477.155 306.542 477.405 306.56 477.655 306.552L479.848 306.595L487.816 306.698H488.013V306.501C488.013 304.916 488.013 303.186 488.013 301.361C488.013 300.445 488.013 299.503 488.013 298.544V295.606L487.791 295.383H476.883H476.686V295.571C476.686 298.818 476.763 301.567 476.789 303.537C476.789 304.436 476.789 305.164 476.841 305.73C476.852 306.014 476.898 306.296 476.978 306.569Z" fill="#263238"/>
<path d="M476.978 295.666H487.885V306.569H476.978V295.666Z" fill="#263238"/>
<path d="M476.978 302.672V306.569H480.919L476.978 302.672Z" fill="white"/>
<path d="M464.211 306.569C464.25 306.285 464.268 305.999 464.262 305.713C464.262 305.139 464.262 304.394 464.305 303.477C464.305 301.516 464.365 298.826 464.408 295.631L464.211 295.828H475.127C475.17 295.88 474.699 295.409 474.904 295.606V298.544C474.904 299.503 474.904 300.445 474.904 301.361C474.904 303.186 474.904 304.916 474.904 306.501L475.101 306.312L467.253 306.406L465.016 306.458C464.494 306.458 464.202 306.458 464.16 306.501C464.406 306.541 464.656 306.558 464.905 306.552L467.099 306.595L475.076 306.698H475.264V306.501C475.264 304.916 475.264 303.186 475.264 301.361V295.606L475.041 295.383H464.125H463.937V295.571C463.98 298.818 464.005 301.567 464.031 303.537C464.031 304.436 464.031 305.164 464.083 305.73C464.106 306.012 464.149 306.293 464.211 306.569Z" fill="#263238"/>
<path d="M464.22 295.666H475.127V306.569H464.22V295.666Z" fill="#EBEBEB"/>
<path d="M464.211 302.672V306.569H468.161L464.211 302.672Z" fill="white"/>
<path d="M451.453 306.569C451.486 306.285 451.5 305.999 451.496 305.713C451.496 305.142 451.513 304.396 451.547 303.477C451.547 301.516 451.607 298.826 451.641 295.631L451.453 295.828H462.36L462.138 295.606V298.543C462.138 299.503 462.138 300.445 462.138 301.361C462.138 303.186 462.138 304.916 462.138 306.501L462.326 306.312L454.478 306.406L452.241 306.458C451.719 306.458 451.436 306.458 451.384 306.501C451.631 306.542 451.88 306.56 452.13 306.552L454.323 306.595L462.292 306.698H462.489V306.501C462.489 304.916 462.489 303.186 462.489 301.361C462.489 300.445 462.489 299.503 462.489 298.543V295.606C462.694 295.803 462.223 295.331 462.266 295.383H451.359H451.162V295.571C451.162 298.818 451.239 301.567 451.264 303.537C451.264 304.436 451.264 305.164 451.316 305.73C451.335 306.013 451.381 306.294 451.453 306.569Z" fill="#263238"/>
<path d="M451.453 295.666H462.36V306.569H451.453V295.666Z" fill="#F5F5F5"/>
<path d="M451.453 302.672V306.569H455.394L451.453 302.672Z" fill="white"/>
<path d="M438.695 306.569C438.695 306.569 438.695 306.269 438.738 305.713C438.781 305.156 438.738 304.394 438.789 303.477C438.789 301.516 438.841 298.826 438.883 295.631L438.695 295.828H449.602L449.379 295.606V298.544C449.379 299.503 449.379 300.445 449.379 301.361C449.379 303.186 449.379 304.916 449.379 306.501L449.577 306.312L441.728 306.406L439.492 306.458C438.969 306.458 438.678 306.458 438.635 306.501C438.878 306.542 439.125 306.559 439.372 306.552L441.574 306.595L449.542 306.698H449.731V306.501C449.731 304.916 449.731 303.186 449.731 301.361C449.731 300.445 449.731 299.503 449.731 298.544V295.606L449.508 295.383H438.601H438.404V295.571C438.446 298.818 438.481 301.567 438.506 303.537C438.506 304.436 438.506 305.164 438.549 305.73C438.566 306.014 438.615 306.296 438.695 306.569Z" fill="#263238"/>
<path d="M438.695 295.666H449.602V306.569H438.695V295.666Z" fill="#FAFAFA"/>
<path d="M438.695 302.672V306.569H442.636L438.695 302.672Z" fill="white"/>
<path d="M443.108 276.394H445.507V278.792H443.108V276.394Z" fill="#263238"/>
<path d="M439.775 276.394H442.174V278.792H439.775V276.394Z" fill="#263238"/>
<path d="M443.108 279.52H445.507V281.918H443.108V279.52Z" fill="#263238"/>
<path d="M439.775 279.52H442.174V281.918H439.775V279.52Z" fill="#263238"/>
<path d="M251.377 331.083H261.805C261.805 331.083 285.342 322.586 290.183 323.374C294.535 324.111 310.498 334.706 313.625 336.804C313.974 337.038 314.238 337.377 314.379 337.772C314.683 338.602 314.655 339.516 314.301 340.326C313.946 341.135 313.293 341.776 312.477 342.115L312.143 342.252L312.288 342.723C312.477 343.341 312.558 343.987 312.528 344.633C312.491 345.122 312.298 345.587 311.979 345.959C311.659 346.331 311.229 346.591 310.751 346.702C310.273 346.813 309.772 346.768 309.322 346.575C308.871 346.381 308.493 346.049 308.244 345.627L308.844 346.689C309.09 347.124 309.206 347.62 309.178 348.119L309.127 349.096C309.095 349.621 308.907 350.124 308.586 350.541C308.265 350.958 307.827 351.269 307.327 351.434C306.85 351.596 306.336 351.614 305.848 351.486C305.361 351.358 304.922 351.09 304.586 350.715C302.564 348.488 297.945 345.241 294.989 344.719C292.359 344.282 288.22 343.006 285.564 343.006C284.906 343.01 284.265 343.212 283.723 343.584C283.18 343.957 282.762 344.483 282.523 345.096C284.279 345.224 293.336 349.378 297.663 351.622C298.332 351.958 298.911 352.45 299.349 353.057C299.788 353.664 300.073 354.368 300.182 355.109C300.336 356.462 299.65 357.884 296.969 357.25C291.219 355.914 284.048 353.413 284.048 353.413C284.048 353.413 278.71 351.888 275.257 354.321C270.39 357.747 268.162 359.014 263.981 357.627C261.444 356.779 259.01 355.65 256.724 354.261L248.498 353.404C248.498 353.404 240.735 334.081 251.377 331.083Z" fill="#FFBE9D"/>
<path d="M253.596 349.387C253.767 349.541 253.953 349.676 254.153 349.789C254.377 349.958 254.618 350.102 254.873 350.218C255.204 350.404 255.551 350.562 255.91 350.689C258.211 351.542 260.728 351.626 263.081 350.929C264.712 350.477 266.218 349.66 267.485 348.539L267.999 348.068L268.462 347.545C268.776 347.182 269.063 346.795 269.319 346.389C269.842 345.533 270.227 344.676 270.801 343.862C271.062 343.446 271.404 343.087 271.808 342.807C272.211 342.527 272.668 342.333 273.149 342.235C274.195 342.094 275.256 342.094 276.302 342.235C278.589 342.432 280.892 342.205 283.097 341.567C285.186 340.966 287.161 340.023 288.94 338.775C289.784 338.178 290.581 337.516 291.322 336.796C291.533 336.6 291.683 336.346 291.753 336.066C291.823 335.787 291.81 335.493 291.716 335.22C291.623 334.952 291.456 334.716 291.235 334.539C291.014 334.362 290.747 334.25 290.465 334.218L275.171 333.575L270.784 333.43H269.619C269.485 333.411 269.35 333.411 269.216 333.43L269.619 333.481L270.776 333.567L275.154 333.832L290.44 334.629C290.645 334.654 290.838 334.737 290.997 334.868C291.157 335 291.275 335.174 291.338 335.37C291.401 335.567 291.407 335.777 291.354 335.977C291.301 336.177 291.192 336.357 291.039 336.496C290.313 337.194 289.534 337.836 288.709 338.415C286.967 339.632 285.036 340.552 282.994 341.139C280.839 341.761 278.589 341.985 276.353 341.798C275.268 341.644 274.166 341.644 273.08 341.798C272.538 341.902 272.023 342.121 271.572 342.44C271.145 342.763 270.775 343.153 270.476 343.597C269.884 344.453 269.499 345.37 269.002 346.166C268.743 346.558 268.457 346.93 268.145 347.28L267.7 347.794L267.211 348.239C265.983 349.346 264.518 350.158 262.927 350.612C260.636 351.317 258.18 351.281 255.91 350.509C255.112 350.193 254.339 349.818 253.596 349.387Z" fill="#EB996E"/>
<path d="M135.887 85.336C136.941 83.719 138.472 82.4695 140.268 81.7606C142.064 81.0516 144.036 80.9182 145.911 81.3789C148.315 79.8568 151.159 79.1817 153.991 79.4611C156.823 79.7404 159.48 80.9582 161.54 82.9206C163.299 82.0692 165.249 81.6869 167.2 81.8106C169.151 81.9344 171.037 82.56 172.675 83.6268C174.313 84.6937 175.647 86.1656 176.548 87.8997C177.45 89.6338 177.888 91.5714 177.819 93.5244C179.809 93.3564 181.801 93.8216 183.511 94.8536C185.22 95.8856 186.559 97.4315 187.337 99.2702C188.114 101.109 188.291 103.146 187.84 105.091C187.389 107.036 186.335 108.789 184.828 110.098C186.918 110.958 188.614 112.564 189.584 114.604C190.555 116.644 190.732 118.973 190.079 121.136C189.427 123.299 187.993 125.142 186.056 126.306C184.119 127.471 181.819 127.873 179.601 127.434L136.76 96.0855C135.518 94.6054 134.767 92.7758 134.61 90.85C134.453 88.9241 134.899 86.9973 135.887 85.336Z" fill="#263238"/>
<path d="M180.818 128.805C180.808 119.099 177.143 109.752 170.553 102.625C163.963 95.4972 154.93 91.1107 145.252 90.3381L143.255 90.184C121.655 89.7214 109.197 107.803 109.334 129.404L106.763 201.242L109 210.475L138.08 234.458L152.689 221.524L156.87 200.385C156.87 200.385 177.802 198.818 179.704 178.175C180.613 168.205 180.861 147.529 180.818 128.805Z" fill="#FFBE9D"/>
<path d="M157.033 200.368C157.033 200.368 143.769 200.111 130.583 190.287C130.583 190.287 135.724 205.661 156.536 205.447L157.033 200.368Z" fill="#EB996E"/>
<path d="M173.295 147.46C173.242 148.229 172.891 148.946 172.317 149.46C171.742 149.974 170.989 150.243 170.219 150.21C169.841 150.211 169.466 150.136 169.117 149.99C168.767 149.843 168.451 149.628 168.187 149.358C167.922 149.087 167.715 148.766 167.577 148.413C167.439 148.061 167.373 147.684 167.383 147.306C167.438 146.536 167.791 145.819 168.367 145.305C168.943 144.792 169.697 144.523 170.468 144.556C170.846 144.556 171.22 144.632 171.568 144.779C171.916 144.926 172.231 145.141 172.495 145.411C172.759 145.682 172.965 146.003 173.103 146.355C173.24 146.707 173.306 147.082 173.295 147.46Z" fill="#263238"/>
<path d="M175.72 139.631C175.326 139.983 173.218 138.15 170.048 137.918C166.878 137.687 164.41 139.083 164.102 138.664C163.947 138.475 164.376 137.807 165.447 137.156C166.897 136.312 168.573 135.938 170.245 136.085C171.897 136.212 173.466 136.86 174.726 137.935C175.634 138.749 175.909 139.469 175.72 139.631Z" fill="#263238"/>
<path d="M145.971 146.646C145.918 147.417 145.566 148.136 144.99 148.649C144.413 149.163 143.658 149.431 142.887 149.396C142.509 149.397 142.135 149.323 141.786 149.177C141.437 149.031 141.122 148.817 140.857 148.547C140.593 148.277 140.385 147.957 140.247 147.605C140.108 147.254 140.042 146.878 140.051 146.501C140.106 145.731 140.458 145.012 141.034 144.497C141.61 143.982 142.363 143.712 143.135 143.743C143.513 143.743 143.888 143.818 144.237 143.965C144.585 144.112 144.901 144.327 145.165 144.597C145.43 144.868 145.637 145.188 145.775 145.54C145.914 145.892 145.98 146.268 145.971 146.646Z" fill="#263238"/>
<path d="M145.363 136.762C144.969 137.122 142.861 135.289 139.682 135.049C136.504 134.809 134.053 136.205 133.736 135.794C133.582 135.606 134.01 134.938 135.09 134.278C136.538 133.438 138.211 133.067 139.879 133.216C141.533 133.335 143.105 133.984 144.361 135.066C145.277 135.88 145.552 136.651 145.363 136.762Z" fill="#263238"/>
<path d="M153.948 161.13C153.948 160.95 155.945 160.762 159.175 160.608C160.032 160.608 160.777 160.488 160.957 159.948C161.092 159.115 160.97 158.26 160.606 157.499C160.006 155.477 159.372 153.362 158.704 151.135C156.073 142.081 154.24 134.664 154.608 134.561C154.977 134.458 157.401 141.713 160.023 150.766L161.831 157.207C162.062 158.15 162.508 159.237 161.994 160.419C161.856 160.697 161.656 160.938 161.409 161.125C161.162 161.312 160.876 161.44 160.572 161.499C160.112 161.587 159.642 161.616 159.175 161.584C155.945 161.49 153.94 161.31 153.948 161.13Z" fill="#263238"/>
<path d="M144.42 162.578C144.943 162.578 144.669 166.004 147.428 168.719C150.187 171.434 153.888 171.289 153.871 171.794C153.871 172.017 153.014 172.402 151.446 172.317C149.423 172.189 147.51 171.348 146.048 169.944C144.646 168.593 143.823 166.75 143.752 164.805C143.735 163.366 144.189 162.544 144.42 162.578Z" fill="#263238"/>
<path d="M146.126 127.7C145.68 128.488 143.007 127.529 139.682 127.323C136.358 127.118 133.53 127.58 133.248 126.732C133.136 126.33 133.744 125.627 134.961 125.019C136.537 124.299 138.274 124.003 139.999 124.163C141.708 124.27 143.357 124.835 144.772 125.799C145.86 126.527 146.323 127.315 146.126 127.7Z" fill="#263238"/>
<path d="M175.72 130.861C175.163 131.589 172.97 130.861 170.331 130.809C167.692 130.758 165.455 131.315 164.941 130.552C164.71 130.193 165.061 129.464 166.038 128.779C167.347 127.955 168.872 127.538 170.419 127.58C171.965 127.623 173.465 128.124 174.726 129.019C175.626 129.799 175.934 130.509 175.72 130.861Z" fill="#263238"/>
<path d="M179.584 119.169C179.584 119.169 175.163 105.798 169.165 102.278C161.9 97.9955 157.984 106.055 150.949 103.469C143.915 100.882 136.975 96.7964 129.169 101.756C120.601 107.203 124.028 111.777 122.829 120.908C117.851 157.918 110.216 167.888 109.685 150.227C109.625 148.291 104.424 146.338 104.279 138.175C104.099 127.58 104.707 114.792 107.654 107.52C110.131 101.396 114.063 97.336 120.875 93.0619C131.628 86.3124 145.577 87.2632 154.968 88.9677C164.359 90.6722 181.718 103.04 179.584 119.169Z" fill="#263238"/>
<path d="M111.047 149.781C111.083 149.021 110.964 148.261 110.698 147.547C110.431 146.834 110.022 146.183 109.495 145.632C108.969 145.082 108.336 144.644 107.635 144.346C106.934 144.048 106.18 143.895 105.418 143.897C101.537 143.957 97.0727 145.798 96.6957 153.781C96.0188 167.948 110.405 165.704 110.405 165.302C110.405 164.899 110.816 155.709 111.047 149.781Z" fill="#FFBE9D"/>
<path d="M107.594 159.82C107.534 159.777 107.337 159.983 106.909 160.154C106.312 160.381 105.65 160.362 105.067 160.102C103.593 159.486 102.445 157.045 102.496 154.492C102.517 153.278 102.81 152.084 103.353 150.998C103.506 150.561 103.763 150.168 104.102 149.853C104.441 149.538 104.851 149.311 105.298 149.19C105.585 149.128 105.885 149.168 106.145 149.305C106.405 149.441 106.608 149.664 106.72 149.935C106.892 150.338 106.789 150.621 106.866 150.646C106.943 150.672 107.183 150.424 107.097 149.79C107.031 149.436 106.85 149.114 106.583 148.873C106.204 148.562 105.718 148.411 105.23 148.454C104.641 148.537 104.084 148.772 103.614 149.135C103.144 149.499 102.777 149.978 102.548 150.526C101.886 151.724 101.527 153.065 101.502 154.432C101.502 157.284 102.796 160.025 104.81 160.719C105.185 160.847 105.585 160.889 105.979 160.843C106.373 160.797 106.753 160.664 107.089 160.454C107.552 160.162 107.646 159.854 107.594 159.82Z" fill="#EB996E"/>
<path d="M113.507 122.441C115.22 123.837 117.079 125.285 119.273 125.679C121.466 126.073 124.097 125.002 124.645 122.843C124.894 121.876 124.739 120.711 125.451 120.008C126.307 119.152 127.695 119.554 128.878 119.777C130.931 120.102 133.034 119.71 134.833 118.668C136.632 117.627 138.017 115.998 138.757 114.055C139.674 115.709 142.124 115.837 143.795 114.912C145.466 113.987 146.614 112.419 147.968 111.1C149.322 109.781 151.164 108.651 153.014 109.062C154.051 109.293 154.977 109.995 156.03 109.987C157.898 109.987 158.978 107.871 159.406 106.047C159.835 104.222 160.263 102.098 161.874 101.225C163.485 100.351 165.25 101.096 166.938 101.49C168.626 101.884 170.871 101.653 171.436 100.017C171.546 99.5753 171.565 99.1157 171.492 98.6665C171.418 98.2172 171.253 97.7878 171.008 97.4045C169.996 95.6055 168.407 94.2 166.498 93.4151C164.589 92.6302 162.471 92.5118 160.486 93.079C159.979 90.6706 158.769 88.4665 157.009 86.746C155.248 85.0254 153.017 83.8656 150.597 83.4135C148.177 82.9614 145.677 83.2372 143.414 84.2061C141.15 85.175 139.226 86.7934 137.883 88.8563C136.491 87.3764 134.762 86.2541 132.844 85.5847C130.925 84.9153 128.874 84.7185 126.863 85.0111C124.852 85.3036 122.942 86.0769 121.293 87.2652C119.645 88.4536 118.309 90.0219 117.396 91.837C115.701 91.2422 113.868 91.1594 112.126 91.5991C110.384 92.0388 108.81 92.9814 107.6 94.3095C106.39 95.6376 105.598 97.2924 105.323 99.0674C105.048 100.842 105.301 102.659 106.052 104.291C103.396 105.533 101.014 107.888 100.731 110.801C100.449 113.713 103.062 116.865 105.949 116.317C105.292 117.422 105.079 118.737 105.355 119.993C105.63 121.25 106.373 122.354 107.433 123.084C108.493 123.814 109.79 124.113 111.063 123.922C112.335 123.731 113.487 123.064 114.286 122.055" fill="#263238"/>
<path d="M104.904 116.24C104.861 116.24 104.544 117.405 105.564 119.023C106.194 119.976 107.156 120.659 108.263 120.942C108.97 121.115 109.707 121.128 110.42 120.979C111.133 120.831 111.804 120.526 112.384 120.085L111.793 119.948C112.447 121.324 113.314 122.587 114.363 123.691C115.056 124.443 115.884 125.056 116.805 125.499C117.687 125.91 118.664 126.079 119.633 125.987C120.451 125.988 121.26 125.809 122.001 125.461C122.741 125.113 123.396 124.605 123.917 123.974C124.561 123.127 125.03 122.16 125.296 121.13C125.44 120.771 125.51 120.387 125.502 120C125.442 120 125.288 120.36 124.996 121.019C124.631 121.951 124.119 122.818 123.48 123.589C121.98 125.507 117.534 126.158 114.972 123.109C113.991 122.067 113.173 120.883 112.547 119.597L112.333 119.16L111.956 119.46C111.464 119.836 110.898 120.103 110.295 120.243C109.693 120.384 109.067 120.394 108.46 120.274C107.483 120.064 106.613 119.511 106.009 118.715C105.48 117.972 105.104 117.13 104.904 116.24Z" fill="#455A64"/>
<path d="M134.181 86.1155C134.181 86.1669 134.541 86.2439 135.15 86.5609C136.022 87.0187 136.736 87.7293 137.197 88.5994L137.343 88.8821L137.557 88.6422C139.519 86.3897 142.023 84.6741 144.832 83.6572C146.644 83.0039 148.574 82.7384 150.495 82.8778C152.607 83.0567 154.628 83.8122 156.339 85.0619C157.685 86.0372 158.809 87.2866 159.638 88.7279C160.385 90.0692 160.799 91.5702 160.846 93.1048V93.5587L161.283 93.4731C163.302 93.1041 165.386 93.5275 167.1 94.6551C168.441 95.5535 169.468 96.8468 170.039 98.3553C170.514 99.73 170.701 101.188 170.588 102.638C170.754 102.278 170.844 101.887 170.853 101.49C170.954 100.387 170.822 99.2759 170.468 98.2268C169.926 96.584 168.872 95.158 167.46 94.1583C165.619 92.8861 163.352 92.385 161.146 92.7621L161.591 93.1304C161.565 91.4605 161.129 89.8224 160.323 88.3596C159.449 86.8118 158.25 85.4708 156.81 84.4281C154.978 83.09 152.809 82.2892 150.547 82.1155C148.509 81.9703 146.464 82.2623 144.549 82.972C141.654 84.0705 139.108 85.9287 137.18 88.351H137.54C137.007 87.4301 136.185 86.7106 135.201 86.3039C134.88 86.1633 134.531 86.0988 134.181 86.1155Z" fill="#455A64"/>
<path d="M55.5255 285.687C56.3052 285.687 57.9332 219.349 57.9332 219.349L103.25 203.177L138.02 234.484L155.765 206.561L171.385 213.738C173.355 214.646 182.001 218.107 183.723 219.417C188.675 223.194 199.017 232.265 201.939 243.263C206.394 260.094 213.386 316.068 213.386 316.068L255.953 331.083L255.027 358.492L213.369 365.01C203.318 364.65 191.151 360.402 187.236 353.43V368.059H59.2527C59.2527 368.059 54.7544 285.687 55.5255 285.687Z" fill="#EBB762"/>
<path d="M185.694 260.453C185.686 260.545 185.686 260.636 185.694 260.728V261.541C185.694 262.278 185.694 263.314 185.694 264.642C185.745 267.331 185.856 271.22 186.07 276.034C186.285 280.847 186.585 286.569 186.816 292.925C187.047 299.28 187.133 306.269 187.176 313.61C187.244 328.299 187.176 341.601 187.176 351.228C187.176 356.016 187.176 359.905 187.176 362.629C187.176 363.948 187.176 364.984 187.176 365.721C187.176 366.055 187.176 366.321 187.176 366.526C187.163 366.62 187.163 366.715 187.176 366.809C187.187 366.718 187.187 366.626 187.176 366.535C187.176 366.329 187.176 366.055 187.176 365.721C187.176 364.984 187.219 363.948 187.244 362.629C187.244 359.905 187.321 356.016 187.381 351.228C187.467 341.601 187.553 328.299 187.484 313.61C187.441 306.269 187.347 299.271 187.09 292.907C186.833 286.543 186.499 280.822 186.233 276.017C185.968 271.211 185.813 267.323 185.711 264.633C185.659 263.314 185.625 262.269 185.591 261.533C185.591 261.199 185.591 260.933 185.548 260.728C185.609 260.643 185.658 260.551 185.694 260.453Z" fill="#263238"/>
<g opacity="0.3">
<path d="M185.693 266.749C192.951 294.107 194.879 323.751 187.587 351.1C187.45 320.65 187.621 292.137 185.693 266.749Z" fill="black"/>
</g>
<g opacity="0.3">
<path d="M79.1138 269.593C76.4576 286.672 73.8158 303.743 71.1882 320.805C71.1498 321.397 70.9578 321.97 70.6312 322.466C69.7744 323.545 68.1122 323.263 66.7927 322.886C63.5882 321.952 58.5415 321.61 56.8107 318.749L56.3909 311.46C56.8536 309.25 58.9614 307.126 59.9981 305.104C66.2186 292.542 72.4334 279.98 78.6425 267.417" fill="black"/>
</g>
<path d="M58.2673 219.22C58.2673 219.22 43.47 227.546 37.9864 239.263C31.2946 253.558 1.68295 305.061 0.58622 317.909C-0.510506 330.757 -0.064949 345.447 21.8611 349.824C43.7871 354.201 66.6813 353.909 66.6813 353.909L75.6179 327.288L50.4874 314.312L56.7508 308.813C58.1218 307.606 59.2551 306.154 60.0923 304.53L79.0023 268.128" fill="#EBB762"/>
<path d="M79.0023 268.145C79.0023 268.145 78.831 268.428 78.5311 269.002L77.1944 271.52L72.1135 281.207L64.128 296.496L61.7117 301.121L60.4522 303.537C60.0441 304.376 59.5834 305.188 59.0727 305.969C58.5309 306.755 57.914 307.487 57.2306 308.154C56.5366 308.822 55.7654 309.455 55.02 310.124L50.376 314.192L50.1875 314.355L50.4103 314.466L75.5322 327.468L75.438 327.237L66.4756 353.849L66.6727 353.704C59.4069 353.704 51.8154 353.37 44.027 352.685C40.1284 352.35 36.1871 351.914 32.2115 351.348C28.2358 350.783 24.2173 350.158 20.216 349.216L18.2453 348.736C17.5941 348.556 16.96 348.308 16.326 348.094C15.6919 347.879 15.0408 347.682 14.4239 347.417L12.6074 346.56C12.299 346.415 11.9991 346.286 11.6992 346.132L10.8424 345.61C10.2769 345.258 9.70282 344.924 9.12875 344.556C8.06802 343.787 7.07607 342.927 6.16414 341.986C4.35095 340.101 2.96313 337.849 2.09425 335.383C1.2363 332.955 0.711708 330.422 0.534828 327.854C0.371933 325.321 0.371933 322.78 0.534828 320.248C0.592789 319.002 0.721527 317.761 0.92041 316.53C1.17186 315.323 1.48934 314.131 1.87147 312.959C2.6169 310.603 3.50799 308.333 4.44192 306.106C5.37585 303.879 6.34409 301.695 7.31229 299.545C11.2622 290.98 15.3493 282.972 19.2135 275.503C23.0778 268.034 26.7621 261.139 30.0951 254.826L34.8247 245.79C35.5616 244.359 36.2728 242.963 36.9411 241.601C37.2667 240.916 37.5923 240.248 37.9178 239.58C38.2434 238.912 38.5776 238.295 38.9032 237.67C40.2115 235.386 41.7504 233.242 43.4957 231.271C44.977 229.628 46.5504 228.069 48.2082 226.603C50.5127 224.581 52.9454 222.71 55.4912 221.002C56.348 220.411 57.0421 219.982 57.4962 219.7L58.1816 219.263C58.1816 219.263 57.9331 219.391 57.4705 219.657C57.0078 219.922 56.3223 220.351 55.4398 220.925C52.8687 222.606 50.4153 224.46 48.0969 226.475C46.4194 227.934 44.8287 229.49 43.3329 231.134C41.5694 233.108 40.0133 235.258 38.689 237.55C38.3548 238.175 38.0036 238.817 37.678 239.477C37.3524 240.137 37.0353 240.805 36.7012 241.481C36.0243 242.843 35.3131 244.231 34.5763 245.661C33.0683 248.516 31.4831 251.52 29.8209 254.672C26.4622 260.984 22.7693 267.88 18.8794 275.34C14.9894 282.8 10.9024 290.757 6.94387 299.374C5.95853 301.524 4.98176 303.708 4.0564 305.944C3.13103 308.179 2.23137 310.466 1.48594 312.796C1.09202 313.986 0.768715 315.199 0.517731 316.428C0.313972 317.675 0.182358 318.934 0.123573 320.196C-0.0411835 322.763 -0.0411835 325.338 0.123573 327.905C0.300369 330.514 0.83075 333.087 1.70014 335.554C2.58886 338.078 4.01218 340.38 5.87285 342.303C6.79693 343.285 7.80936 344.18 8.89739 344.976C9.45432 345.344 10.037 345.687 10.611 346.046L11.4678 346.577L12.3932 347.014L14.2354 347.871C14.8609 348.145 15.5206 348.325 16.1632 348.556C16.8059 348.787 17.4484 349.019 18.0996 349.207L20.096 349.687C24.1059 350.637 28.1244 351.263 32.0915 351.828C36.0586 352.393 40.0256 352.83 43.9242 353.173C51.7298 353.849 59.3469 354.192 66.6213 354.175H66.7755L66.8184 354.029C69.9629 344.667 72.9618 335.7 75.7464 327.4L75.7978 327.246L75.6522 327.169L50.5045 314.209V314.483L55.1399 310.406C55.8854 309.738 56.6479 309.113 57.3591 308.419C58.0514 307.735 58.6768 306.986 59.2269 306.184C59.7412 305.39 60.2075 304.566 60.6235 303.717C61.0434 302.86 61.4804 302.089 61.8745 301.293C62.6971 299.7 63.4968 298.158 64.2736 296.668C67.3496 290.672 70.0143 285.533 72.1906 281.336L77.1859 271.614C77.7514 270.501 78.1884 269.653 78.4797 269.044C78.771 268.436 79.0023 268.145 79.0023 268.145Z" fill="#263238"/>
<path d="M65.0105 218.321C65.451 218.632 65.9088 218.918 66.3814 219.177C67.6318 219.96 68.8336 220.818 69.9801 221.747C73.7753 224.824 76.8559 228.689 79.0085 233.074C81.1612 237.459 82.3344 242.26 82.4468 247.143C82.4842 248.621 82.4327 250.1 82.2926 251.571C82.1983 252.616 82.1212 253.19 82.1554 253.199C82.2095 253.067 82.247 252.929 82.2668 252.788C82.3097 252.513 82.4039 252.111 82.4639 251.588C82.6764 250.114 82.7738 248.624 82.7552 247.134C82.7292 242.192 81.5841 237.32 79.4057 232.883C77.2273 228.446 74.0723 224.56 70.1771 221.516C69.0054 220.596 67.7683 219.763 66.4757 219.023C66.0215 218.749 65.6188 218.578 65.4046 218.458C65.1904 218.338 65.019 218.304 65.0105 218.321Z" fill="#263238"/>
<path d="M23.7889 303.546C24.141 303.693 24.509 303.8 24.8857 303.862L27.8931 304.616C31.1947 305.465 34.4423 306.512 37.618 307.751C40.7858 309.006 43.8609 310.482 46.8202 312.171C47.9598 312.822 48.868 313.361 49.4935 313.755C49.8057 313.973 50.1386 314.16 50.4874 314.312C50.211 314.049 49.9096 313.814 49.5877 313.61C48.988 313.173 48.1054 312.59 47.0173 311.897C44.0702 310.119 40.9774 308.594 37.7722 307.34C34.5818 306.087 31.3026 305.074 27.9616 304.308C26.685 304.017 25.6396 303.811 24.9113 303.691C24.5424 303.609 24.1667 303.56 23.7889 303.546Z" fill="#263238"/>
<g opacity="0.3">
<path d="M104.518 204.736C105.853 205.02 107.093 205.635 108.126 206.526C118.508 214.159 128.014 222.918 136.469 232.642L137.909 235.306C134.713 233.199 131.054 231.023 127.318 231.768C124.114 232.445 121.792 235.126 119.71 237.653C112.027 227.982 105.024 217.791 98.7521 207.152C100.449 205.841 102.394 204.462 104.518 204.736Z" fill="black"/>
</g>
<path d="M138.046 234.484L125.262 218.321L106.035 195.374L95.8217 204.959L113.729 232.676L126.444 225.027L138.046 234.484Z" fill="white"/>
<g opacity="0.3">
<path d="M161.111 213.584C159.398 222.681 155.191 230.269 153.486 239.366C151.455 236.71 151.943 235.58 149.913 232.925C149.185 231.785 148.156 230.869 146.94 230.278C144.755 229.421 142.347 230.698 140.359 231.914C143.467 228.481 146.889 225.347 150.581 222.552L150.735 223.289C154.163 219.035 157.673 214.846 161.266 210.723" fill="black"/>
</g>
<path d="M138.243 234.389L156.202 203.794L162.619 209.704L156.545 237.079L147.925 225.987L138.243 234.389Z" fill="white"/>
<path d="M138.963 233.164L139.288 232.659L140.196 231.152L143.624 225.336L156.305 203.88H156.065L162.525 209.55L162.474 209.379C160.623 217.67 158.549 226.963 156.305 237.002L156.673 236.916L148.105 225.781L147.968 225.601L147.796 225.747L138.106 234.149L138.294 234.098L137.249 233.901L137.36 233.952C134.25 231.186 130.806 228.454 127.455 225.541L126.599 224.788L126.479 224.685L126.342 224.762C121.878 227.143 117.868 230.098 113.626 232.411L113.918 232.488L96.0017 204.779V205.036C99.5489 201.687 102.959 198.484 106.198 195.443H105.932L128.509 222.852L134.824 230.466L136.452 232.582C136.838 233.027 137.043 233.25 137.043 233.25C137.043 233.25 136.863 233.01 136.495 232.548L134.876 230.518L128.646 222.809L106.181 195.272L106.052 195.126L105.906 195.254L95.6932 204.83L95.5647 204.942L95.6589 205.079L113.541 232.813L113.652 232.985L113.832 232.882C118.116 230.552 122.117 227.597 126.547 225.242H126.29L127.147 225.995C130.514 228.925 134.002 231.648 137.052 234.406H137.103H137.163L138.2 234.603H138.303L138.388 234.535L148.071 226.132H147.753L156.382 237.207L156.647 237.558L156.742 237.122L162.868 209.456V209.353L162.791 209.284L156.305 203.64L156.159 203.511L156.065 203.683L143.504 225.207L140.119 231.066L139.262 232.599C139.048 232.976 138.963 233.164 138.963 233.164Z" fill="#263238"/>
<path d="M186.859 226.586C186.739 226.586 186.859 232.154 187.039 239.023C187.219 245.892 187.561 251.426 187.716 251.426C187.87 251.426 187.758 245.858 187.536 238.989C187.313 232.119 186.996 226.586 186.859 226.586Z" fill="#263238"/>
<path d="M110.859 330.509C111.963 330.692 113.024 331.078 113.986 331.648C116.283 333.199 116.797 336.299 117.105 339.057C117.199 339.914 117.225 340.95 116.514 341.455C116.185 341.612 115.825 341.694 115.46 341.694C115.095 341.694 114.735 341.612 114.406 341.455C109.702 339.971 105.181 337.96 100.928 335.46C98.6578 334.132 96.3187 332.462 95.5476 329.952L95.4019 328.873C100.601 328.792 105.792 329.341 110.859 330.509Z" fill="#FFBE9D"/>
<path d="M90.5951 308.196C98.9834 318.278 130.189 355.537 130.189 355.537L131.38 360.882C131.396 360.957 131.391 361.036 131.366 361.109C131.341 361.182 131.297 361.247 131.238 361.297C131.179 361.347 131.108 361.38 131.032 361.393C130.956 361.406 130.878 361.398 130.806 361.37L125.785 359.391L85.4713 312.539C85.174 312.193 84.9503 311.79 84.8137 311.355C84.6772 310.92 84.6308 310.462 84.6773 310.008C84.7238 309.555 84.8623 309.115 85.0842 308.717C85.3062 308.318 85.607 307.969 85.9683 307.691C86.6547 307.16 87.5207 306.915 88.3838 307.009C89.247 307.104 90.0397 307.529 90.5951 308.196Z" fill="#263238"/>
<path d="M93.594 311.802L88.5045 316.068L87.0907 314.423L92.1974 310.124L93.594 311.802Z" fill="#455A64"/>
<path d="M99.6945 325.533C100.119 325.534 100.53 325.382 100.851 325.104C101.192 324.797 101.404 324.371 101.442 323.914C101.461 323.678 101.433 323.441 101.359 323.216C101.286 322.991 101.168 322.783 101.014 322.603L95.1704 315.751C95.0183 315.57 94.8316 315.42 94.6213 315.311C94.411 315.203 94.1812 315.137 93.9452 315.117C93.5894 315.087 93.2327 315.164 92.9206 315.337C92.6085 315.51 92.3549 315.773 92.1923 316.09C92.0297 316.408 91.9654 316.767 92.0075 317.122C92.0495 317.476 92.1961 317.81 92.4286 318.081L98.2721 324.933C98.5807 325.298 99.0212 325.526 99.4974 325.567L99.6945 325.533ZM100.68 324.976C100.356 325.232 99.9462 325.353 99.5355 325.313C99.1248 325.273 98.7456 325.075 98.4777 324.762L92.6343 317.909C92.4891 317.752 92.3771 317.568 92.3052 317.366C92.2333 317.165 92.203 316.951 92.216 316.738C92.229 316.524 92.285 316.315 92.3808 316.124C92.4766 315.933 92.6101 315.763 92.7733 315.625C92.9365 315.487 93.126 315.383 93.3304 315.32C93.5348 315.257 93.7498 315.236 93.9626 315.258C94.1754 315.28 94.3814 315.345 94.5684 315.449C94.7554 315.553 94.9193 315.693 95.0505 315.862L100.894 322.715C101.168 323.035 101.303 323.451 101.271 323.871C101.255 324.079 101.197 324.281 101.101 324.467C101.006 324.652 100.874 324.816 100.714 324.95L100.68 324.976Z" fill="#455A64"/>
<path d="M95.4704 321.413C95.5561 321.498 96.173 321.061 96.8585 320.428C97.5439 319.794 98.0151 319.211 97.938 319.126C97.8609 319.04 97.2354 319.477 96.55 320.102C95.8645 320.727 95.3933 321.318 95.4704 321.413Z" fill="#455A64"/>
<path d="M75.3094 328.856L83.1836 331.605C83.1836 331.605 90.4066 329.79 93.4654 329.087C94.5006 328.846 95.5739 328.816 96.6208 329C97.6678 329.184 98.6666 329.578 99.5574 330.158C103.259 332.556 109.625 336.685 111.904 338.201C114.183 339.717 120.001 344.53 120.001 344.53C120.001 344.53 124.225 349.37 122.846 352.145C121.466 354.92 117.645 354.526 117.645 354.526C117.376 355.605 116.802 356.583 115.99 357.343C115.178 358.103 114.164 358.612 113.069 358.809C113.069 358.809 114.029 360.316 110.422 361.276C106.815 362.235 98.4264 361.276 98.4264 361.276C98.4264 361.276 83.0037 361.909 81.5385 361.164C80.0733 360.419 73.5786 353.815 73.5786 353.815L68.0779 350.526L75.3094 328.856Z" fill="#FFBE9D"/>
<path d="M105.769 334.201C106.506 334.832 107.291 335.405 108.117 335.914C109.599 336.933 111.673 338.295 113.883 339.897C115.775 341.26 117.58 342.739 119.29 344.325C120.592 345.541 121.346 346.363 121.398 346.312C121.449 346.261 121.261 346.072 120.944 345.678C120.627 345.284 120.138 344.736 119.513 344.094C117.849 342.432 116.052 340.908 114.14 339.537C111.921 337.927 109.856 336.599 108.288 335.648C107.488 335.101 106.645 334.617 105.769 334.201Z" fill="#EB996E"/>
<path d="M98.6064 341.361C98.8468 341.551 99.1085 341.712 99.3861 341.841L101.545 343.074C103.396 344.076 105.941 345.473 108.614 347.228C110.903 348.721 113.072 350.391 115.1 352.222C116.651 353.635 117.542 354.586 117.594 354.543C117.442 354.276 117.255 354.031 117.037 353.815C116.66 353.361 116.068 352.736 115.323 351.991C113.341 350.076 111.18 348.355 108.871 346.852C106.563 345.358 104.168 344.002 101.7 342.792C100.757 342.329 99.9859 341.935 99.4375 341.73C99.1802 341.566 98.9002 341.442 98.6064 341.361Z" fill="#EB996E"/>
<path d="M90.7665 347.031C90.9733 347.292 91.2122 347.525 91.4777 347.725C91.9575 348.136 92.6858 348.719 93.6026 349.378C95.4447 350.732 98.1352 352.359 101.117 354.124C103.697 355.602 106.433 356.792 109.274 357.67C110.362 358.021 111.245 358.278 111.844 358.449C112.159 358.554 112.483 358.625 112.812 358.663C112.526 358.499 112.221 358.37 111.904 358.278C111.21 358.038 110.371 357.73 109.334 357.37C106.549 356.416 103.861 355.2 101.305 353.738C98.3151 351.974 95.6161 350.398 93.7397 349.121C92.8058 348.496 92.0261 347.957 91.5462 347.588C91.3063 347.376 91.045 347.19 90.7665 347.031Z" fill="#EB996E"/>
<path d="M87.4248 353.909C87.7981 354.421 88.2424 354.877 88.7443 355.263C89.8828 356.27 91.1006 357.184 92.3858 357.995C93.6678 358.809 95.0114 359.522 96.4043 360.128C96.9681 360.419 97.5714 360.627 98.1951 360.745C98.2465 360.616 95.6246 359.511 92.6257 357.618C89.6269 355.725 87.5191 353.807 87.4248 353.909Z" fill="#EB996E"/>
<path d="M43.907 368.462H160.109C160.109 366.479 159.321 364.577 157.918 363.174C156.515 361.772 154.613 360.984 152.629 360.984H51.3871C49.4033 360.984 47.5007 361.772 46.0979 363.174C44.6952 364.577 43.907 366.479 43.907 368.462Z" fill="#263238"/>
<path d="M184.357 362.081L238.096 361.824L256.312 275.588C256.677 273.864 257.621 272.316 258.989 271.203C260.356 270.091 262.064 269.48 263.827 269.473H376.13C377.275 269.48 378.404 269.741 379.435 270.238C380.466 270.736 381.373 271.456 382.091 272.348C382.809 273.239 383.319 274.279 383.585 275.392C383.851 276.505 383.865 277.664 383.627 278.783L365.128 363.58C364.827 364.959 364.063 366.194 362.962 367.079C361.862 367.964 360.492 368.446 359.079 368.445H176.577C176.577 364.102 180.004 362.081 184.357 362.081Z" fill="#E0E0E0"/>
<path d="M241.635 368.462C241.755 368.462 246.819 346.355 252.945 319.023C259.071 291.691 263.947 269.507 263.827 269.473C263.707 269.438 258.643 291.58 252.508 318.92C246.373 346.261 241.515 368.436 241.635 368.462Z" fill="#263238"/>
<path d="M308.03 317.704C305.365 321.284 305.785 326.106 308.964 328.462C312.143 330.817 316.872 329.832 319.537 326.252C322.202 322.672 321.782 317.849 318.603 315.494C315.424 313.139 310.695 314.124 308.03 317.704Z" fill="white"/>
<path d="M211.081 363.237H215.297C216.281 363.237 217.079 364.035 217.079 365.019C217.079 366.003 216.281 366.8 215.297 366.8H211.081C210.097 366.8 209.299 366.003 209.299 365.019C209.299 364.035 210.097 363.237 211.081 363.237Z" fill="#263238"/>
<path d="M134.199 364.667C134.199 364.667 134.113 364.745 133.967 364.916C133.774 365.187 133.642 365.497 133.582 365.824C133.493 366.469 133.576 367.126 133.825 367.728C134.073 368.33 134.477 368.855 134.995 369.25C135.747 369.802 136.637 370.137 137.566 370.218C138.654 370.316 139.749 370.287 140.83 370.132C142.054 369.937 143.294 369.865 144.532 369.918C145.195 369.954 145.848 370.104 146.46 370.363C147.105 370.591 147.647 371.045 147.985 371.64C148.106 371.966 148.131 372.32 148.057 372.661C147.982 373.001 147.812 373.312 147.565 373.558C147.066 374.135 146.43 374.577 145.714 374.843C144.936 375.117 144.178 375.443 143.444 375.82C143.045 376.031 142.698 376.329 142.427 376.69C142.156 377.051 141.968 377.467 141.876 377.909C141.793 378.849 142.027 379.788 142.541 380.579C143.055 381.369 143.819 381.964 144.712 382.269C146.547 382.834 148.466 383.074 150.384 382.98C154.455 382.981 158.522 382.718 162.559 382.192C166.758 381.695 171.128 381.079 175.549 380.676C179.88 380.261 184.241 380.261 188.572 380.676C192.771 381.061 196.824 381.644 200.722 381.712C202.633 381.809 204.548 381.639 206.411 381.207C208.212 380.801 209.817 379.784 210.953 378.329C211.485 377.651 211.857 376.861 212.039 376.018C212.222 375.175 212.211 374.302 212.006 373.464C211.796 372.677 211.317 371.989 210.651 371.52C209.986 371.05 209.177 370.829 208.365 370.894C207.979 370.942 207.615 371.102 207.319 371.355C207.024 371.608 206.809 371.942 206.703 372.316C206.618 372.668 206.611 373.034 206.682 373.389C206.753 373.744 206.901 374.079 207.114 374.372C207.306 374.653 207.551 374.893 207.837 375.078C208.122 375.263 208.441 375.39 208.776 375.451C209.401 375.55 210.042 375.463 210.618 375.203C211.645 374.738 212.453 373.894 212.872 372.847C213.211 371.989 213.403 371.08 213.437 370.158C213.506 368.505 213.352 367.229 213.352 366.372C213.352 365.935 213.352 365.61 213.352 365.387C213.363 365.276 213.363 365.164 213.352 365.053C213.33 365.163 213.316 365.275 213.309 365.387C213.309 365.61 213.266 365.935 213.257 366.372C213.257 367.229 213.343 368.513 213.257 370.141C213.212 371.042 213.012 371.928 212.666 372.762C212.262 373.748 211.491 374.54 210.516 374.972C209.978 375.211 209.383 375.289 208.802 375.194C208.502 375.138 208.217 375.022 207.964 374.853C207.711 374.683 207.494 374.464 207.328 374.209C207.141 373.952 207.012 373.657 206.948 373.346C206.884 373.034 206.888 372.712 206.96 372.402C207.057 372.088 207.244 371.809 207.496 371.598C207.748 371.386 208.056 371.252 208.382 371.211C209.116 371.159 209.845 371.366 210.442 371.794C211.04 372.223 211.469 372.847 211.655 373.558C211.837 374.346 211.839 375.165 211.661 375.954C211.483 376.743 211.129 377.481 210.627 378.115C209.537 379.494 208.001 380.451 206.283 380.822C204.455 381.244 202.578 381.405 200.705 381.301C196.832 381.224 192.797 380.633 188.581 380.239C184.224 379.82 179.837 379.82 175.48 380.239C171.008 380.642 166.672 381.267 162.482 381.764C158.462 382.293 154.413 382.565 150.358 382.578C148.439 382.535 146.503 382.578 144.832 381.909C144.014 381.605 143.308 381.058 142.81 380.342C142.322 379.66 142.111 378.818 142.218 377.987C142.296 377.595 142.459 377.225 142.698 376.905C142.937 376.585 143.244 376.322 143.598 376.136C144.316 375.76 145.061 375.437 145.826 375.169C146.587 374.875 147.264 374.399 147.796 373.781C148.06 373.47 148.25 373.104 148.353 372.71C148.45 372.312 148.411 371.893 148.242 371.52C147.869 370.848 147.257 370.34 146.528 370.098C145.881 369.835 145.195 369.679 144.498 369.635C143.244 369.599 141.99 369.685 140.753 369.892C139.688 370.057 138.607 370.098 137.532 370.012C136.64 369.961 135.781 369.664 135.047 369.156C134.548 368.786 134.153 368.294 133.901 367.726C133.649 367.159 133.547 366.536 133.607 365.918C133.681 365.453 133.886 365.019 134.199 364.667Z" fill="#263238"/>
<path d="M45.2951 364.702C45.2951 364.822 70.794 364.924 102.239 364.924C133.684 364.924 159.192 364.822 159.192 364.702C159.192 364.582 133.736 364.488 102.239 364.488C70.7426 364.488 45.2951 364.573 45.2951 364.702Z" fill="#455A64"/>
<path d="M88.0846 109.576L73.1502 107.289C63.6125 113.568 52.0701 116.054 40.792 114.258C29.5138 112.462 19.3156 106.514 12.2019 97.5824C5.08823 88.6511 1.57369 77.3829 2.34905 65.9928C3.12441 54.6026 8.13364 43.9142 16.3921 36.0287C24.6505 28.1431 35.5608 23.6308 46.9784 23.3785C58.396 23.1263 69.4951 27.1525 78.0939 34.6656C86.6927 42.1788 92.1694 52.6355 93.4473 63.9803C94.7253 75.3251 91.7121 86.7375 85 95.9742L88.0846 109.576Z" fill="white"/>
<path d="M88.0846 109.576L87.9047 108.719L87.3392 106.15C86.8337 103.837 86.0797 100.42 85.1115 95.9827C85.1094 95.9703 85.1049 95.9583 85.0982 95.9476C85.0914 95.937 85.0826 95.9278 85.0722 95.9206C85.0618 95.9134 85.05 95.9084 85.0377 95.9058C85.0253 95.9032 85.0125 95.9032 85.0001 95.9056L85.1372 96.0341C87.1203 93.3155 88.801 90.3888 90.1496 87.3061C91.8099 83.4626 92.9259 79.4064 93.4655 75.2547C93.7919 72.8997 93.9295 70.5224 93.8767 68.1455C93.7798 65.5982 93.4934 63.0615 93.0199 60.5567C91.9952 55.0551 89.9618 49.7903 87.0222 45.0278C81.7604 36.4538 73.8105 29.8596 64.4101 26.2718C55.0098 22.6839 44.6865 22.3038 35.0476 25.1906C31.5138 26.2194 28.1121 27.6567 24.9114 29.4732L22.5723 30.9978L21.3899 31.7687C21.0043 32.0342 20.653 32.3426 20.2846 32.6252L18.0654 34.424C17.3371 35.0235 16.6945 35.7173 16.0005 36.3683C14.6582 37.6582 13.4017 39.0344 12.239 40.4882L11.7849 41.0107L11.3822 41.576L10.594 42.7152C10.0713 43.4775 9.49722 44.2055 9.03454 44.9935C8.57186 45.7815 8.13486 46.5867 7.68076 47.3832C7.45798 47.7772 7.22662 48.1712 7.01241 48.5738L6.46408 49.8244L5.35876 52.2997C5.01603 53.1562 4.77612 54.0128 4.50194 54.8693C2.5319 60.8843 1.83021 67.2422 2.44105 73.5419C3.0519 79.8416 4.96202 85.9464 8.05101 91.4712C11.14 96.996 15.3408 101.821 20.3884 105.642C25.436 109.462 31.2208 112.196 37.3781 113.67L39.2802 114.098L40.2227 114.304L41.1738 114.415C42.4333 114.561 43.6671 114.732 44.8838 114.852C47.2481 114.963 49.6167 114.94 51.9783 114.784C59.5658 114.13 66.8684 111.585 73.2188 107.383H73.1503L84.2889 109.019L87.1336 109.439L88.0846 109.567L87.0993 109.396L84.2375 108.942L73.1589 107.229H73.0989C70.269 109.083 67.2433 110.62 64.0766 111.811C60.1732 113.267 56.0877 114.178 51.9355 114.518C49.5908 114.673 47.2391 114.69 44.8924 114.569C43.6843 114.441 42.4505 114.278 41.1995 114.124L40.257 114.013L39.3317 113.799L37.4381 113.37C31.3315 111.908 25.5947 109.195 20.59 105.404C15.5853 101.613 11.4216 96.8252 8.3618 91.3436C5.30203 85.8621 3.41272 79.8057 2.81324 73.5571C2.21377 67.3086 2.91714 61.0036 4.87894 55.0406C5.17026 54.1841 5.41873 53.3276 5.73576 52.471L6.83251 50.0128L7.38089 48.7794C7.58652 48.3854 7.81783 47.9999 8.0406 47.5974C8.48615 46.8208 8.93169 46.0328 9.37724 45.2334C9.83992 44.4539 10.4054 43.7344 10.9195 42.9807L11.7078 41.8586L12.1019 41.2933L12.5561 40.7708C13.7312 39.328 14.9991 37.9632 16.3518 36.6852C17.0372 36.0428 17.6798 35.3576 18.3996 34.758L20.5844 33.0449C20.9529 32.7623 21.3041 32.4539 21.6811 32.1884L22.855 31.4261L25.177 29.9186C28.342 28.109 31.706 26.6719 35.2018 25.636C41.7611 23.6604 48.6852 23.2084 55.4459 24.3142C62.2065 25.4201 68.6254 28.0547 74.2128 32.0171C79.2364 35.5408 83.4971 40.0418 86.7395 45.2505C89.6726 49.976 91.706 55.2031 92.7372 60.668C93.2109 63.1556 93.4973 65.6751 93.594 68.2055C93.6535 70.5643 93.5274 72.9242 93.217 75.2633C92.1892 82.7273 89.3312 89.8215 84.8973 95.9142C84.8804 95.9331 84.8711 95.9575 84.8711 95.9827C84.8711 96.008 84.8804 96.0324 84.8973 96.0513C84.9134 96.0631 84.933 96.0695 84.953 96.0695C84.973 96.0695 84.9925 96.0631 85.0087 96.0513L84.863 95.9998C85.8741 100.402 86.6538 103.786 87.185 106.09C87.4506 107.229 87.6562 108.103 87.7933 108.702C87.9304 109.302 88.0846 109.576 88.0846 109.576Z" fill="#263238"/>
<path d="M34.9532 88.2654L46.2975 93.4046C47.6078 94.0004 49.0226 94.3324 50.4612 94.3815C51.8998 94.4306 53.334 94.196 54.6819 93.6909C56.0298 93.1858 57.2649 92.4202 58.3167 91.4379C59.3685 90.4555 60.2165 89.2756 60.812 87.9656L71.9507 63.5288L40.6254 49.2847L29.4867 73.7215C28.8873 75.0348 28.5533 76.4535 28.5037 77.8962C28.4542 79.3389 28.6902 80.7772 29.1981 82.1285C29.706 83.4798 30.4759 84.7175 31.4635 85.7707C32.4511 86.8238 33.637 87.6716 34.9532 88.2654Z" fill="#E0E0E0"/>
<path d="M34.9533 88.2654C34.0018 87.7497 33.1035 87.1415 32.2714 86.4495C31.3259 85.575 30.535 84.5469 29.9323 83.4088C29.1158 81.8856 28.6835 80.1862 28.6728 78.4581C28.6528 77.4453 28.7828 76.4351 29.0584 75.4603C29.3848 74.398 29.8034 73.3662 30.3093 72.3767L33.4367 65.5245L40.8139 49.3789L40.5397 49.4817L61.8488 59.2033L71.8308 63.7344L71.7194 63.4431L62.4914 83.8114C61.7803 85.3532 61.1205 86.8864 60.4265 88.3168C59.4597 90.2277 57.9465 91.8081 56.0791 92.8574C54.2118 93.9067 52.0746 94.3774 49.939 94.2097C47.42 94.0555 45.4151 92.8135 43.5815 92.0598L38.9204 89.9784L35.99 88.6851L35.2189 88.3596C35.1346 88.3172 35.0454 88.2856 34.9533 88.2654C35.0325 88.3173 35.1156 88.3631 35.2017 88.4024L35.9558 88.7622L38.8518 90.124L43.4872 92.2654L46.4004 93.593C47.5117 94.0904 48.6997 94.3945 49.9133 94.4923C52.1122 94.6883 54.3194 94.222 56.251 93.1535C58.1826 92.085 59.7502 90.4631 60.7521 88.4966C61.4718 87.0491 62.123 85.533 62.8427 83.9913C65.6617 77.7986 68.7891 70.9378 72.1221 63.6401L72.2078 63.4431L72.0107 63.3489L62.0287 58.8179L40.7111 49.1477L40.5226 49.062L40.4369 49.2504C37.7808 55.1177 35.296 60.5566 33.1197 65.4217L30.0266 72.274C29.5279 73.2864 29.1124 74.3377 28.7842 75.4174C28.5092 76.4155 28.3851 77.449 28.4158 78.4838C28.441 80.2495 28.9 81.982 29.7524 83.5288C30.7518 85.4167 32.303 86.9554 34.1993 87.9399L34.7648 88.2054C34.8251 88.2326 34.8884 88.2527 34.9533 88.2654Z" fill="#263238"/>
<path d="M71.6508 63.7002C65.593 64.9421 59.9038 64.9935 54.3259 62.3211C48.748 59.6488 43.3586 55.0235 40.5311 49.4732L71.6508 63.7002Z" fill="#EBB762"/>
<path d="M38.3463 54.3383C38.3463 54.3383 38.1406 54.5181 37.8065 54.9036L36.3842 56.6166C35.1161 58.2098 33.3767 60.3768 31.2433 63.0149L27.7303 67.4603C27.1049 68.3168 26.4365 69.0363 25.7853 69.9785C25.1483 70.9714 24.8012 72.1224 24.7829 73.3018C24.7598 74.566 25.11 75.809 25.7897 76.8754C26.4693 77.9417 27.4483 78.7842 28.6042 79.2975L35.6044 82.5266L39.1603 84.1626C40.3085 84.753 41.5182 85.2154 42.7675 85.5416C45.2025 86.0865 47.7506 85.7843 49.9905 84.6851C51.0212 84.1738 51.9687 83.5096 52.8008 82.7151C53.5891 81.9356 54.2831 81.1733 54.9943 80.4367L58.9014 76.3425L64.5221 70.3468L66.0473 68.7879C66.2351 68.6066 66.3992 68.4023 66.5356 68.1798C66.32 68.3252 66.1217 68.4948 65.9444 68.6851L64.3508 70.244C62.9113 71.683 60.9235 73.6701 58.5672 76.0598C57.342 77.2932 55.9968 78.6294 54.6002 80.0941C53.2035 81.5588 51.7727 83.2461 49.7249 84.1541C47.6163 85.1658 45.2256 85.4287 42.9474 84.8992C41.7596 84.5765 40.6104 84.1256 39.5201 83.5545L35.9643 81.9185L28.9556 78.7065C27.9006 78.2254 27.0077 77.4489 26.3851 76.471C25.8051 75.5233 25.5078 74.4298 25.5283 73.3189C25.5312 72.2597 25.8278 71.222 26.3851 70.3211C26.9592 69.4646 27.6703 68.608 28.2701 67.82L31.6974 63.3318L36.6412 56.7879L37.9607 54.9892C38.111 54.7859 38.2402 54.5678 38.3463 54.3383Z" fill="#263238"/>
<path d="M64.3336 67.7687C64.1776 68.1109 64.1267 68.4917 64.1872 68.8629C64.2477 69.2341 64.417 69.5791 64.6736 69.8541C64.9302 70.1291 65.2627 70.3219 65.6289 70.408C65.9952 70.4942 66.3787 70.4698 66.7311 70.338C67.0835 70.2062 67.3888 69.9729 67.6086 69.6676C67.8283 69.3623 67.9525 68.9987 67.9655 68.6228C67.9785 68.247 67.8798 67.8757 67.6817 67.5559C67.4836 67.2362 67.1951 66.9823 66.8527 66.8265C66.3936 66.6176 65.8704 66.5995 65.398 66.7762C64.9256 66.9528 64.5428 67.3098 64.3336 67.7687Z" fill="#263238"/>
<path d="M40.8053 49.7816C40.3084 50.4411 40.9939 51.5888 40.634 52.3511C40.3056 53.0422 40.1984 53.8178 40.3272 54.572C40.456 55.3262 40.8145 56.0223 41.3537 56.5653C41.4419 56.6509 41.5169 56.749 41.5765 56.8565C41.8688 57.6938 41.8383 58.6101 41.4908 59.4261L40.2827 63.6145C39.9783 64.4657 39.8359 65.3662 39.8629 66.2697C39.8801 66.7229 40.022 67.1625 40.273 67.5402C40.5239 67.918 40.8741 68.2193 41.2851 68.4111C42.5018 68.8736 43.8556 67.9314 44.5325 66.8351C45.3893 65.4732 45.852 63.7687 47.4372 62.9464C47.7924 62.7465 48.2011 62.6622 48.6064 62.7052C49.0118 62.7482 49.3937 62.9163 49.6991 63.1862C51.1985 64.6595 48.8423 67.0149 50.2047 68.4453C50.4057 68.637 50.6504 68.7769 50.9176 68.853C51.1847 68.9291 51.4664 68.9391 51.7383 68.8822C52.8108 68.5637 53.7268 67.8587 54.3088 66.9036L57.5476 62.8094L40.7882 49.7987" fill="#EBB762"/>
</svg>
