<svg width="194" height="253" viewBox="0 0 194 253" fill="none" xmlns="http://www.w3.org/2000/svg">
<g id="Vector">
<path d="M123.802 131.592C125.752 130.371 126.343 127.8 125.121 125.85C123.9 123.9 121.329 123.309 119.379 124.531C117.429 125.752 116.838 128.323 118.06 130.273C119.281 132.223 121.852 132.814 123.802 131.592Z" fill="#EBB762"/>
<path d="M189.842 18.2562C189.958 18.3226 174.766 42.8229 155.933 72.9744C137.1 103.126 121.73 127.513 121.626 127.449C121.521 127.386 136.688 102.88 155.529 72.7232C174.37 42.5668 189.779 18.156 189.842 18.2562Z" fill="#EBB762"/>
<path d="M185.451 15.1026C185.451 15.1026 185.025 14.9188 184.215 14.5349C183.406 14.1509 182.193 13.5688 180.609 12.822C179.812 12.441 178.936 12.0022 177.957 11.5528L174.658 10.2273L170.818 8.67189C169.434 8.17569 167.933 7.6989 166.35 7.17687C163.223 6.02284 159.607 5.18556 155.721 4.17402C151.751 3.35445 147.445 2.39153 142.737 1.88414C132.093 0.515317 121.318 0.515237 110.674 1.88388C109.195 2.09169 107.671 2.23011 106.216 2.52949L101.683 3.41528C98.5972 3.92069 95.554 4.87155 92.3708 5.68466C90.7879 6.0536 89.2543 6.63849 87.6773 7.15399L82.9781 8.7342L78.2012 10.6529C76.6175 11.3121 74.9972 11.9299 73.4495 12.7491L68.7182 15.1007L67.5125 15.6949L63.994 17.7378C62.4522 18.7036 60.8186 19.5229 59.3009 20.5272L54.6754 23.5962C48.4016 28.0162 42.5349 32.9877 37.1454 38.4514C25.5663 50.2262 16.4276 64.1726 10.2541 79.4896C3.58686 95.9276 0.497258 113.597 1.19099 131.322C1.81787 149.051 6.2224 166.442 14.1101 182.331C28.1586 210.782 52.4597 232.857 82.1249 244.117C88.4368 246.529 94.9378 248.413 101.561 249.75C104.731 250.459 107.887 250.886 110.978 251.366L115.578 251.855C117.087 252.036 118.593 252.059 120.072 252.174L122.299 252.303C123.025 252.331 123.76 252.322 124.474 252.347L128.789 252.382C131.619 252.24 134.383 252.248 137.049 251.963C138.39 251.842 139.705 251.748 141.014 251.626L144.822 251.109L146.687 250.864L148.506 250.529L152.056 249.873C159.997 248.29 167.758 245.907 175.219 242.76C176.785 242.176 178.191 241.456 179.536 240.861C180.88 240.266 182.151 239.706 183.271 239.079L186.42 237.44C187.386 236.942 188.254 236.495 189.007 236.034L192.446 234.019L193.636 233.349L192.48 234.073L189.052 236.124C188.281 236.607 187.472 237.028 186.48 237.553L183.346 239.215C182.225 239.842 180.943 240.366 179.607 241.009C178.271 241.653 176.858 242.345 175.297 242.936C167.835 246.118 160.069 248.533 152.118 250.145L148.561 250.806L146.761 251.085L141.078 251.865C139.779 252.003 138.456 252.101 137.105 252.207C134.436 252.504 131.657 252.506 128.803 252.662L124.488 252.628C123.759 252.612 123.029 252.629 122.314 252.584L120.086 252.455C118.586 252.321 117.086 252.327 115.593 252.135L110.988 251.638C107.904 251.187 104.733 250.769 101.54 250.042C94.8812 248.712 88.3438 246.833 81.9951 244.423C52.2179 233.153 27.8174 211.018 13.7072 182.476C5.78518 166.529 1.36168 149.072 0.732916 131.277C0.39045 122.267 1.00476 113.247 2.56553 104.367C7.05945 79.3276 18.9981 56.2245 36.823 38.0737C42.2514 32.602 48.1624 27.6314 54.4842 23.2222L59.1298 20.1513C60.6717 19.1855 62.2667 18.3046 63.8278 17.3696L67.354 15.3219L73.3237 12.377C74.8764 11.5655 76.4995 10.9352 78.0957 10.2789L82.8408 8.32646L87.6113 6.72303C89.1932 6.21524 90.7345 5.62551 92.3222 5.26428C95.4823 4.46566 98.538 3.51769 101.644 3.01033L106.19 2.12742C107.7 1.84726 109.169 1.74265 110.656 1.47698C121.32 0.115849 132.116 0.124997 142.778 1.5042C147.496 2.02701 151.804 3.01016 155.778 3.83744C159.675 4.91743 163.308 5.76529 166.44 6.92703C168.02 7.4616 169.518 7.95094 170.901 8.42688L174.73 9.99968L178.016 11.3551C179 11.8121 179.876 12.251 180.665 12.6369C182.223 13.4106 183.436 13.9928 184.247 14.397L185.451 15.1026Z" fill="#EBB762"/>
</g>
</svg>
