<svg width="16" height="16" viewBox="0 0 16 16" fill="none" xmlns="http://www.w3.org/2000/svg">
<g id="Dribble" clip-path="url(#clip0_27_2472)">
<path id="Vector" d="M14.6667 7.99992C14.6667 9.84612 13.9162 11.517 12.7037 12.7243C11.4981 13.9247 9.8357 14.6666 8 14.6666C4.3181 14.6666 1.33334 11.6818 1.33334 7.99992C1.33334 6.22042 2.03053 4.60379 3.16667 3.40825C4.3813 2.1301 6.0976 1.33325 8 1.33325C9.8357 1.33325 11.4981 2.0752 12.7037 3.27557C13.9162 4.48282 14.6667 6.15372 14.6667 7.99992Z" stroke="#263238" stroke-linecap="round" stroke-linejoin="round"/>
<path id="Vector_2" d="M14.6668 8C13.694 8 11.0105 7.6331 8.60893 8.68773C6.0001 9.8334 4.1109 11.6105 3.28776 12.7157" stroke="#263238" stroke-linecap="round" stroke-linejoin="round"/>
<path id="Vector_3" d="M5.5 1.81787C6.54347 2.78083 8.8201 5.23277 9.66667 7.6666C10.5132 10.1004 10.827 13.093 11.0202 13.9448" stroke="#263238" stroke-linecap="round" stroke-linejoin="round"/>
<path id="Vector_4" d="M1.38477 7.16667C2.64402 7.24257 5.97763 7.31107 8.11097 6.39997C10.2443 5.48887 12.0801 3.8132 12.7097 3.28174" stroke="#263238" stroke-linecap="round" stroke-linejoin="round"/>
<path id="Vector_5" d="M1.83334 10.5376C2.42056 11.963 3.4876 13.1402 4.83334 13.8679" stroke="#263238" stroke-linecap="round" stroke-linejoin="round"/>
<path id="Vector_6" d="M1.33334 8.00011C1.33334 6.22065 2.03053 4.60398 3.16667 3.40845" stroke="#263238" stroke-linecap="round" stroke-linejoin="round"/>
<path id="Vector_7" d="M8 1.33325C6.0976 1.33325 4.3813 2.1301 3.16666 3.40825" stroke="#263238" stroke-linecap="round" stroke-linejoin="round"/>
<path id="Vector_8" d="M10.6667 1.88794C11.4311 2.22194 12.1208 2.69515 12.7037 3.27553C13.9162 4.48275 14.6667 6.15369 14.6667 7.99989C14.6667 8.82075 14.5183 9.60699 14.2469 10.3332" stroke="#263238" stroke-linecap="round" stroke-linejoin="round"/>
<path id="Vector_9" d="M8 14.6667C9.8357 14.6667 11.4981 13.9247 12.7037 12.7244" stroke="#263238" stroke-linecap="round" stroke-linejoin="round"/>
</g>
<defs>
<clipPath id="clip0_27_2472">
<rect width="16" height="16" fill="white"/>
</clipPath>
</defs>
</svg>
