<svg width="18" height="18" viewBox="0 0 18 18" fill="none" xmlns="http://www.w3.org/2000/svg">
<g id="Facebook" clip-path="url(#clip0_27_2482)">
<path id="Vector" fill-rule="evenodd" clip-rule="evenodd" d="M1.54167 17.25C1.10444 17.25 0.75 16.8936 0.75 16.454V1.54603C0.75 1.10639 1.10444 0.75 1.54167 0.75H16.4583C16.8955 0.75 17.25 1.10639 17.25 1.54603V16.454C17.25 16.8936 16.8955 17.25 16.4583 17.25C15.9306 17.25 10.9583 17.25 1.54167 17.25Z" stroke="#263238" stroke-linecap="round" stroke-linejoin="round"/>
<path id="Vector_2" fill-rule="evenodd" clip-rule="evenodd" d="M14.4981 6.70762H12.8653H12.6724C12.1662 6.70762 11.7558 7.11806 11.7558 7.62431V9.45817H14.4981L14.0965 12.2072H11.7558V17.25H8.74001V12.2072H6.25012V9.45817H8.70783L8.74001 6.84877L8.73105 5.91356C8.71837 4.59292 9.77865 3.51206 11.0993 3.49938C11.1069 3.49931 11.1146 3.49927 11.1222 3.49927H14.4981V6.70762Z" fill="#263238"/>
</g>
<defs>
<clipPath id="clip0_27_2482">
<rect width="18" height="18" fill="white"/>
</clipPath>
</defs>
</svg>
