<svg width="21" height="21" viewBox="0 0 21 21" fill="none" xmlns="http://www.w3.org/2000/svg">
<g id="Youtube">
<path id="Vector" d="M4.84037 4.5563C7.26552 4.43542 9.15176 4.375 10.4991 4.375C11.8467 4.375 13.7336 4.43546 16.1599 4.55634C17.4734 4.62179 18.5357 5.64896 18.6452 6.9594C18.7562 8.28677 18.8116 9.45586 18.8116 10.4667C18.8116 11.4899 18.7548 12.6753 18.6411 14.0228C18.5319 15.317 17.4927 16.3368 16.1967 16.4215C14.1223 16.5572 12.2231 16.625 10.4991 16.625C8.77538 16.625 6.87689 16.5572 4.80366 16.4216C3.5081 16.3369 2.46912 15.3177 2.35939 14.0241C2.24423 12.6664 2.18665 11.4806 2.18665 10.4667C2.18665 9.46492 2.24285 8.29544 2.35526 6.95817H2.35526C2.46537 5.64826 3.52745 4.62175 4.84037 4.5563Z" stroke="#263238" stroke-linejoin="round"/>
<path id="Vector_2" d="M9.1875 8.57891V12.4275C9.1875 12.6346 9.35541 12.8025 9.56248 12.8025C9.63602 12.8025 9.70795 12.7809 9.76929 12.7404L12.6557 10.8326C12.8285 10.7184 12.876 10.4857 12.7618 10.313C12.7345 10.2717 12.6993 10.2362 12.6582 10.2085L9.77174 8.26771C9.59989 8.15212 9.36687 8.1978 9.25129 8.36965C9.20972 8.43151 9.1875 8.50436 9.1875 8.57891Z" stroke="#263238" stroke-linejoin="round"/>
</g>
</svg>
