<svg width="38" height="38" viewBox="0 0 38 38" fill="none" xmlns="http://www.w3.org/2000/svg">
<g id="Money Icon">
<path id="Vector" d="M3.16666 10.2914H34.8333V29.2914H3.16666V10.2914Z" stroke="#263238" stroke-width="2" stroke-linejoin="round"/>
<path id="Vector_2" fill-rule="evenodd" clip-rule="evenodd" d="M3.16666 16.6247C6.66446 16.6247 9.49999 13.7892 9.49999 10.2914H3.16666V16.6247Z" stroke="#263238" stroke-width="2" stroke-linecap="round" stroke-linejoin="round"/>
<path id="Vector_3" fill-rule="evenodd" clip-rule="evenodd" d="M3.16666 22.9581C6.66446 22.9581 9.49999 25.7936 9.49999 29.2914H3.16666V22.9581Z" stroke="#263238" stroke-width="2" stroke-linecap="round" stroke-linejoin="round"/>
<path id="Vector_4" fill-rule="evenodd" clip-rule="evenodd" d="M34.8333 22.9581V29.2914H28.5C28.5 25.7936 31.3355 22.9581 34.8333 22.9581Z" stroke="#263238" stroke-width="2" stroke-linecap="round" stroke-linejoin="round"/>
<path id="Vector_5" fill-rule="evenodd" clip-rule="evenodd" d="M34.8333 16.6247C31.3355 16.6247 28.5 13.7892 28.5 10.2914H34.8333V16.6247Z" stroke="#263238" stroke-width="2" stroke-linecap="round" stroke-linejoin="round"/>
<path id="Vector_6" d="M19 24.5414C21.1861 24.5414 22.9583 22.4147 22.9583 19.7914C22.9583 17.168 21.1861 15.0414 19 15.0414C16.8139 15.0414 15.0417 17.168 15.0417 19.7914C15.0417 22.4147 16.8139 24.5414 19 24.5414Z" stroke="#263238" stroke-width="2" stroke-linejoin="round"/>
</g>
</svg>
